<?xml version="1.0" encoding="utf-8"?>
<!-- Generator: Adobe Illustrator 15.1.0, SVG Export Plug-In . SVG Version: 6.00 Build 0)  -->
<!DOCTYPE svg PUBLIC "-//W3C//DTD SVG 1.1//EN" "http://www.w3.org/Graphics/SVG/1.1/DTD/svg11.dtd">
<svg version="1.1" id="圖層_1" xmlns="http://www.w3.org/2000/svg" xmlns:xlink="http://www.w3.org/1999/xlink" x="0px" y="0px"
	 width="620.197px" height="495.419px" viewBox="0 0 620.197 495.419" enable-background="new 0 0 620.197 495.419"
	 xml:space="preserve">
<g>
	<g>
		<polygon opacity="0.2" fill="#242424" points="320.548,495.419 241.815,449.966 541.158,276.792 620.197,322.419 		"/>
		<g>
			<polyline fill="#242424" points="532.795,365.946 519.278,358.276 529.703,353.788 543.361,361.954 532.795,365.946 			"/>
			
				<ellipse transform="matrix(0.866 0.5 -0.5 0.866 238.1699 -222.1689)" fill="#242424" cx="533.666" cy="333.355" rx="16.768" ry="28.776"/>
		</g>
		<g>
			<polyline fill="#242424" points="382.373,453.003 368.855,445.331 379.282,440.845 392.939,449.009 382.373,453.003 			"/>
			
				<ellipse transform="matrix(0.8661 0.4999 -0.4999 0.8661 261.517 -135.2903)" fill="#242424" cx="383.244" cy="420.411" rx="16.767" ry="28.776"/>
		</g>
		<path fill="#94C61F" d="M615.969,197.89l-70.07-40.432c-1.058-0.611-2.205-0.992-3.379-1.145c-0.39-0.05-0.782-0.076-1.176-0.076
			c-1.572,0.001-3.145,0.408-4.553,1.223L349.773,265.538l-81.693,47.211c-1.949,1.125-3.651,2.592-5.052,4.303l82.165,47.104
			l273.833-163.208C618.306,199.698,617.262,198.635,615.969,197.89z"/>
		<path fill="#A7E024" d="M320.568,470.562c0.043-5.434,0.229-10.859,0.559-16.273c0.563-9.248,1.535-18.463,2.932-27.613
			c0.049-0.314,0.104-0.629,0.153-0.943c0.823-5.299,1.784-10.578,2.887-15.83c0.134-0.637,0.276-1.271,0.415-1.908
			c0.441-2.041,0.905-4.076,1.389-6.107c1.637-6.875,3.498-13.699,5.61-20.461l-0.001,0.002c0.002-0.004,0.002-0.008,0.004-0.01
			h0.001l0,0l12.865-16.166l-84.354-48.199c-1.488,1.818-2.638,3.916-3.351,6.199l-0.608,1.945l-3.374,10.803
			c-0.903,2.889-1.749,5.795-2.566,8.707c-1.904,6.795-3.576,13.648-5.006,20.549c-1.442,6.961-2.646,13.971-3.6,21.014
			c-0.292,2.156-0.57,4.316-0.816,6.479c-0.519,4.547-0.936,9.107-1.251,13.676c-0.314,4.568-0.527,9.146-0.638,13.73
			c-0.06,2.486,0.654,4.867,1.94,6.898c0.333,0.527,0.708,1.025,1.119,1.5c0.528,0.605,1.096,1.18,1.74,1.678
			c0.44,0.342,0.906,0.654,1.396,0.938l64.657,37.287C315.115,469.864,317.841,470.565,320.568,470.562z"/>
		<path fill="#81AE1B" d="M619.026,200.948L351.73,355.378c-0.852,0.492-1.672,1.027-2.471,1.588
			c-0.647,0.457-1.266,0.949-1.875,1.451c-0.125,0.102-0.257,0.193-0.38,0.299c-1.45,1.23-2.786,2.58-4.001,4.031l0,0
			c-2.75,3.287-4.872,7.092-6.17,11.252l-4.999,15.996c-7.48,23.947-11.287,48.893-11.287,73.98v6.588
			c2.72,0,5.44-0.707,7.876-2.113l287.411-165.934c2.668-1.543,4.313-4.389,4.313-7.471v-89.92
			C620.147,203.633,619.748,202.198,619.026,200.948z"/>
		<path fill="#008895" d="M248.074,388.175c0,0,1.598-12.857,4.942-27.783c4.27-19.049,10.962-31.273,10.962-31.273l69.117,39.965
			c0,0-5.373,13.898-8.922,29.119c-3.626,15.547-5.693,30.764-5.693,30.764L248.074,388.175z"/>
		<path fill="#008895" d="M333.096,421.089L333.096,421.089c0-15.836,3.744-31.445,10.928-45.559l0,0
			c2.192-4.307,5.586-7.885,9.771-10.301l258.743-149.385v26.618L390.332,370.753c-4.627,2.672-7.479,7.611-7.479,12.955v8.652
			L333.096,421.089z"/>
		<path fill="#404040" d="M243.456,395.04l0.957,7.326c0.513,3.934,2.82,7.41,6.245,9.412l0,0l2.097,11.301
			c0.477,2.566,2.052,4.795,4.313,6.1l40.949,23.635c2.731,1.578,6.213,0.09,6.961-2.975l1.46-5.984l1.122,0.654
			c5.059,2.951,11.56,0.959,14.096-4.32l0,0L243.456,395.04z"/>
		<g>
			
				<ellipse transform="matrix(0.866 0.5 -0.5 0.866 267.2122 -141.0317)" fill="#404040" cx="396.761" cy="428.083" rx="16.769" ry="28.775"/>
			<path fill="#FFFFFF" d="M405.836,433.323c-4.966,8.6-13.056,13.229-18.066,10.334c-5.014-2.895-5.051-12.213-0.086-20.814
				c4.969-8.602,13.057-13.229,18.07-10.336C410.765,415.401,410.803,424.722,405.836,433.323z"/>
			
				<ellipse transform="matrix(0.866 0.5 -0.5 0.866 267.1833 -141.0254)" fill="#888888" cx="396.761" cy="428.082" rx="9.162" ry="15.723"/>
			
				<ellipse transform="matrix(0.866 0.5 -0.5 0.866 267.2 -141.0287)" fill="#D1D1D1" cx="396.761" cy="428.083" rx="6.305" ry="10.819"/>
			
				<ellipse transform="matrix(0.866 0.5 -0.5 0.866 267.2024 -141.0288)" fill="#888888" cx="396.76" cy="428.083" rx="2.172" ry="3.728"/>
		</g>
		<path fill="#FFFFFF" d="M243.456,395.04L243.456,395.04l0.957,7.326c0.513,3.934,2.82,7.41,6.245,9.412v-4.262
			C250.658,402.37,247.913,397.614,243.456,395.04z"/>
		<path fill="#FFFFFF" d="M321.655,440.188l-4.435-2.559c-4.791-2.768-10.783,0.691-10.783,6.225l0,0l1.122,0.654
			C312.618,447.46,319.119,445.468,321.655,440.188z"/>
		<polyline fill="none" stroke="#006670" stroke-width="1.1027" stroke-miterlimit="10" points="288.154,396.929 274.144,389.327 
			264.785,387.251 		"/>
		
			<line fill="none" stroke="#006670" stroke-width="1.1027" stroke-miterlimit="10" x1="274.144" y1="389.327" x2="269.659" y2="383.284"/>
		<path fill="#00A0AA" d="M248.074,388.175l58.392-34.49l-42.487-24.566c0,0-7.994,18.059-10.165,27.902
			C251.644,366.862,247.461,386.249,248.074,388.175z"/>
		<path fill="none" stroke="#006670" stroke-width="1.1027" stroke-miterlimit="10" d="M283.501,391.405
			c5.771,4.482,6.258,7.189,1.088,6.041c-5.167-1.146-14.035-5.713-19.805-10.195c-5.769-4.484-6.257-7.189-1.088-6.043
			C268.866,382.356,277.733,386.921,283.501,391.405z"/>
		<path fill="#006670" d="M248.074,388.175L248.074,388.175c4.739-5.318,12.562-6.576,18.731-3.016l53.742,31.029l-2.067,12.777
			L248.074,388.175z"/>
		<g>
			<path opacity="0.2" fill="#FFFFFF" d="M450.695,309.284L346.807,413.173l36.046-20.813v-8.652c0-5.344,2.853-10.283,7.479-12.955
				l67.174-38.783l62.979-62.98L450.695,309.284z"/>
			<path opacity="0.2" fill="#FFFFFF" d="M406.584,334.751l-52.789,30.479c-4.186,2.416-7.579,5.994-9.771,10.301
				c-5.08,9.982-8.432,20.715-9.963,31.746L406.584,334.751z"/>
		</g>
		<g>
			<path fill="#FFFFFF" d="M396.328,381.204l-3.375,1.949v-1.624l8.215-4.743v1.624l-3.391,1.958v13.175l-1.449,0.837V381.204z"/>
			<path fill="#FFFFFF" d="M402.963,385.894l-1.152,5.32l-1.482,0.855l3.788-16.984l1.712-0.988l3.787,12.611l-1.531,0.885
				l-1.186-3.971L402.963,385.894z M406.619,382.29l-1.104-3.623c-0.247-0.822-0.411-1.605-0.575-2.367l-0.033,0.02
				c-0.165,0.951-0.329,1.968-0.561,3.002l-1.086,4.908L406.619,382.29z"/>
			<path fill="#FFFFFF" d="M412.676,370.143v14.799l-1.449,0.837v-14.799L412.676,370.143z"/>
			<path fill="#FFFFFF" d="M422.918,378.567c-0.512,0.646-1.581,1.615-2.932,2.395c-3.129,1.807-5.467,0.521-5.467-4.354
				c0-4.654,2.355-9.133,5.797-11.119c1.366-0.789,2.256-0.906,2.635-0.861l-0.363,1.768c-0.526-0.048-1.301,0.137-2.223,0.669
				c-2.602,1.502-4.33,4.717-4.33,8.604c0,3.646,1.564,5.047,4.248,3.497c0.889-0.513,1.778-1.268,2.354-1.973L422.918,378.567z"/>
			<path fill="#FFFFFF" d="M426.159,362.358v6.191l5.368-3.1v-6.191l1.448-0.836v14.799l-1.448,0.836v-6.938l-5.368,3.099v6.939
				l-1.448,0.836v-14.799L426.159,362.358z"/>
			<path fill="#FFFFFF" d="M436.893,356.161v8.781c0,3.295,1.104,4.063,2.586,3.207c1.63-0.941,2.701-3.008,2.701-6.258v-8.783
				l1.448-0.836v8.65c0,4.546-1.795,7.426-4.198,8.813c-2.272,1.312-3.985,0.589-3.985-4.022v-8.717L436.893,356.161z"/>
			<path fill="#FFFFFF" d="M446.113,365.636v-14.799l1.58-0.912l3.54,5.443c0.807,1.27,1.466,2.447,1.977,3.668l0.049-0.051
				c-0.132-1.899-0.165-3.682-0.165-5.986v-6.191l1.352-0.78v14.799l-1.449,0.837l-3.524-5.476c-0.774-1.2-1.515-2.462-2.058-3.753
				l-0.05,0.052c0.083,1.818,0.099,3.587,0.099,6.046v6.324L446.113,365.636z"/>
			<path fill="#FFFFFF" d="M465.41,353.837c-0.643,0.701-1.928,1.924-3.426,2.789c-1.68,0.971-3.063,1.198-4.148,0.441
				c-0.955-0.678-1.549-2.311-1.549-4.617c0-4.414,2.289-8.963,6.01-11.111c1.285-0.741,2.306-0.957,2.783-0.926l-0.362,1.77
				c-0.593-0.032-1.333,0.133-2.454,0.779c-2.699,1.559-4.461,4.815-4.461,8.526c0,3.755,1.68,5.003,4.281,3.501
				c0.938-0.542,1.58-1.088,1.909-1.498v-4.414l-2.239,1.293v-1.536l3.656-2.11V353.837z"/>
			<path fill="#FFFFFF" d="M481.542,330.602c0.625-0.558,1.63-1.271,2.618-1.841c1.432-0.826,2.354-1.029,3.029-0.672
				c0.576,0.236,0.938,0.906,0.938,2.07c0,1.449-0.725,3.119-1.876,4.333v0.066c1.054-0.279,2.288,0.172,2.288,2.367
				c0,1.273-0.379,2.48-0.955,3.515c-0.757,1.383-2.009,2.545-3.819,3.59c-0.987,0.57-1.745,0.92-2.223,1.107V330.602z
				 M482.974,335.835l1.301-0.75c1.499-0.865,2.388-2.455,2.388-3.882c0-1.713-0.971-1.854-2.42-1.018
				c-0.658,0.38-1.037,0.664-1.269,0.862V335.835z M482.974,342.905c0.297-0.105,0.692-0.311,1.202-0.605
				c1.482-0.855,2.85-2.369,2.85-4.521c0-1.998-1.301-2.104-2.865-1.199l-1.187,0.684V342.905z"/>
			<path fill="#FFFFFF" d="M491.896,324.405v8.781c0,3.295,1.104,4.063,2.585,3.207c1.63-0.941,2.7-3.008,2.7-6.258v-8.783
				l1.449-0.836v8.65c0,4.546-1.795,7.426-4.198,8.813c-2.272,1.312-3.985,0.589-3.985-4.022v-8.717L491.896,324.405z"/>
			<path fill="#FFFFFF" d="M500.935,331.658c0.643,0.178,1.564,0.063,2.552-0.508c1.467-0.847,2.322-2.372,2.322-3.866
				c0-1.361-0.593-1.831-2.091-1.713c-1.812,0.168-2.931-0.459-2.931-2.523c0-2.305,1.432-4.846,3.589-6.09
				c1.12-0.646,1.96-0.78,2.438-0.684l-0.396,1.788c-0.346-0.087-1.086-0.075-2.092,0.505c-1.514,0.874-2.091,2.415-2.091,3.425
				c0,1.384,0.676,1.675,2.206,1.581c1.878-0.119,2.816,0.548,2.816,2.722c0,2.283-1.252,5.003-3.869,6.515
				c-1.07,0.618-2.239,0.854-2.832,0.67L500.935,331.658z"/>
		</g>
		<polygon fill="#FFFFFF" points="420.623,415.222 435.73,376.337 612.538,274.257 601.256,299.034 458.174,381.644 
			453.327,396.337 		"/>
		<g>
			
				<ellipse transform="matrix(0.866 0.5 -0.5 0.866 243.7957 -227.8888)" fill="#404040" cx="547.183" cy="341.026" rx="16.767" ry="28.775"/>
			
				<ellipse transform="matrix(0.866 0.5 -0.5 0.866 243.8077 -227.8946)" fill="#FFFFFF" cx="547.183" cy="341.027" rx="10.479" ry="17.984"/>
			
				<ellipse transform="matrix(0.8661 0.4999 -0.4999 0.8661 243.7708 -227.8752)" fill="#888888" cx="547.183" cy="341.026" rx="9.162" ry="15.724"/>
			
				<ellipse transform="matrix(0.8661 0.4999 -0.4999 0.8661 243.7486 -227.863)" fill="#D1D1D1" cx="547.183" cy="341.027" rx="6.304" ry="10.818"/>
			
				<ellipse transform="matrix(0.8662 0.4997 -0.4997 0.8662 243.6057 -227.7864)" fill="#888888" cx="547.182" cy="341.027" rx="2.171" ry="3.726"/>
		</g>
		<g opacity="0.2">
			<polygon fill="#FFFFFF" points="271.901,317.052 305.891,335.069 339.813,353.212 339.172,353.218 372.328,333.942 
				405.545,314.774 438.764,295.606 472.053,276.563 505.343,257.522 538.694,238.586 572.077,219.706 605.53,200.948 
				572.476,220.399 539.351,239.729 506.195,259.005 472.978,278.173 439.759,297.339 406.469,316.382 373.18,335.425 
				339.827,354.358 339.504,354.542 339.186,354.366 305.51,335.771 			"/>
		</g>
		<g opacity="0.2">
			<path fill="#FFFFFF" d="M290.585,307.056l31.157-18.426c10.383-6.148,20.824-12.193,31.232-18.297
				c10.425-6.074,20.815-12.207,31.268-18.234l31.326-18.134l31.336-18.115l31.4-18.004l31.406-17.994l31.477-17.872l0.306-0.173
				l0.296,0.176c9.079,5.409,18.145,10.842,27.189,16.307l27.138,16.395l-27.493-15.792c-9.164-5.263-18.31-10.56-27.44-15.88
				l0.602,0.003l-31.249,18.267l-31.318,18.146l-31.325,18.135l-31.389,18.025l-31.399,18.004
				c-10.456,6.022-20.975,11.934-31.458,17.905c-10.499,5.945-20.966,11.947-31.493,17.844L290.585,307.056z"/>
		</g>
		<g opacity="0.2">
			<path fill="#FFFFFF" d="M263.028,320.583c0,0,1.191,0.588,3.251,1.658c2.05,1.088,5.008,2.59,8.505,4.484
				c3.505,1.879,7.573,4.109,11.91,6.537c2.165,1.221,4.401,2.482,6.674,3.764c2.264,1.295,4.563,2.613,6.863,3.93
				c2.289,1.338,4.577,2.676,6.829,3.992c2.258,1.307,4.451,2.643,6.588,3.91c4.267,2.549,8.228,4.965,11.603,7.068
				c3.385,2.088,6.162,3.904,8.126,5.141c1.954,1.252,3.057,1.992,3.057,1.992s-1.191-0.586-3.251-1.656
				c-2.051-1.088-5.01-2.588-8.506-4.482c-3.506-1.881-7.574-4.109-11.91-6.539c-2.164-1.223-4.416-2.457-6.674-3.764
				c-2.264-1.297-4.563-2.613-6.863-3.932c-2.288-1.338-4.576-2.674-6.829-3.992c-2.243-1.332-4.451-2.643-6.588-3.91
				c-4.265-2.551-8.226-4.967-11.603-7.068c-3.385-2.09-6.162-3.904-8.126-5.141C264.131,321.323,263.028,320.583,263.028,320.583z"
				/>
		</g>
		<g opacity="0.2">
			<path fill="#FFFFFF" d="M247.057,392.091c0,0,1.153,0.568,3.147,1.605c1.984,1.055,4.847,2.51,8.231,4.346
				c3.393,1.822,7.328,3.986,11.523,6.342c2.094,1.186,4.257,2.41,6.456,3.652c2.189,1.26,4.414,2.539,6.638,3.818
				c2.213,1.299,4.425,2.598,6.604,3.877c2.184,1.27,4.303,2.568,6.37,3.799c4.124,2.479,7.952,4.826,11.215,6.873
				c3.271,2.029,5.953,3.799,7.85,5.002c1.889,1.219,2.953,1.939,2.953,1.939s-1.154-0.568-3.148-1.604
				c-1.984-1.055-4.849-2.508-8.232-4.346c-3.393-1.822-7.329-3.984-11.523-6.342c-2.092-1.188-4.271-2.385-6.455-3.654
				c-2.189-1.258-4.414-2.537-6.637-3.816c-2.213-1.301-4.425-2.6-6.603-3.879c-2.169-1.293-4.303-2.568-6.369-3.801
				c-4.124-2.479-7.952-4.826-11.215-6.873c-3.271-2.029-5.953-3.797-7.852-5C248.122,392.812,247.057,392.091,247.057,392.091z"/>
		</g>
		<g opacity="0.2">
			<path fill="#FFFFFF" d="M389.075,379.921c0,0,3.457-2.016,9.507-5.541c6.071-3.488,14.705-8.541,25.136-14.48
				c10.435-5.93,22.565-12.928,35.64-20.285c13.072-7.361,27.018-15.213,40.961-23.064c13.988-7.773,27.977-15.547,41.092-22.836
				c13.109-7.295,25.422-13.965,35.938-19.752c10.518-5.783,19.344-10.492,25.494-13.84c6.17-3.309,9.696-5.201,9.696-5.201
				s-3.457,2.016-9.507,5.541c-6.07,3.488-14.703,8.545-25.135,14.482c-10.435,5.93-22.563,12.932-35.641,20.285
				c-13.072,7.359-27.018,15.211-40.961,23.063c-13.989,7.773-27.978,15.547-41.092,22.834
				c-13.112,7.291-25.423,13.965-35.938,19.752c-10.52,5.781-19.344,10.492-25.494,13.84
				C392.602,378.028,389.075,379.921,389.075,379.921z"/>
		</g>
		<g>
			<path opacity="0.2" fill="#FFFFFF" d="M278.645,337.599l-26.413,26.416c-2.81,13.322-4.157,24.16-4.157,24.16l24.687,14.303
				l43.265-43.264L278.645,337.599z"/>
			<path opacity="0.2" fill="#FFFFFF" d="M323.873,399.507c0.1-0.434,0.197-0.869,0.301-1.305
				c3.549-15.221,8.922-29.119,8.922-29.119l-5.257-3.039l-43.275,43.273l18.677,10.82L323.873,399.507z"/>
		</g>
		<polygon opacity="0.2" fill="#FFFFFF" points="612.538,242.462 612.538,215.844 595.164,225.875 532.184,288.854 		"/>
		<path fill="none" stroke="#004249" stroke-width="1.028" stroke-miterlimit="10" d="M333.096,421.089L333.096,421.089
			c0-15.836,3.744-31.445,10.928-45.559l0,0c2.192-4.307,5.586-7.885,9.771-10.301l258.743-149.385v26.618L390.332,370.753
			c-4.627,2.672-7.479,7.611-7.479,12.955v8.652L333.096,421.089z"/>
		<path fill="none" stroke="#004249" stroke-width="1.028" stroke-miterlimit="10" d="M248.074,388.175
			c0,0,1.598-12.857,4.942-27.783c4.27-19.049,10.962-31.273,10.962-31.273l69.117,39.965c0,0-5.373,13.898-8.922,29.119
			c-3.626,15.547-5.693,30.764-5.693,30.764L248.074,388.175z"/>
		<g>
			
				<line fill="none" stroke="#004249" stroke-width="1.028" stroke-miterlimit="10" x1="390.332" y1="370.753" x2="390.332" y2="344.134"/>
			
				<line fill="none" stroke="#004249" stroke-width="1.028" stroke-miterlimit="10" x1="424.184" y1="324.591" x2="424.184" y2="351.208"/>
			
				<line fill="none" stroke="#004249" stroke-width="1.028" stroke-miterlimit="10" x1="458.174" y1="305.155" x2="458.174" y2="331.774"/>
			
				<line fill="none" stroke="#004249" stroke-width="1.028" stroke-miterlimit="10" x1="492.162" y1="285.726" x2="492.162" y2="312.343"/>
			
				<line fill="none" stroke="#004249" stroke-width="1.028" stroke-miterlimit="10" x1="526.152" y1="265.854" x2="526.152" y2="292.474"/>
			
				<line fill="none" stroke="#004249" stroke-width="1.028" stroke-miterlimit="10" x1="560.355" y1="245.709" x2="560.355" y2="272.329"/>
			
				<line fill="none" stroke="#004249" stroke-width="1.028" stroke-miterlimit="10" x1="590.422" y1="228.302" x2="590.422" y2="254.921"/>
		</g>
	</g>
	<g>
		<polygon fill-rule="evenodd" clip-rule="evenodd" fill="#7B7B7B" points="0,380.565 0,372.948 5.981,376.401 5.981,384.019 		"/>
		<polygon fill-rule="evenodd" clip-rule="evenodd" fill="#A4A4A4" points="0,372.948 570.91,43.333 576.893,46.788 5.981,376.401 
					"/>
		<polygon fill-rule="evenodd" clip-rule="evenodd" fill="#696969" points="5.981,376.401 576.893,46.788 576.893,54.404 
			5.981,384.019 		"/>
		<polygon fill-rule="evenodd" clip-rule="evenodd" fill="#7B7B7B" points="36.371,400.628 36.371,393.013 42.353,396.466 
			42.353,404.083 		"/>
		<polygon fill-rule="evenodd" clip-rule="evenodd" fill="#A4A4A4" points="36.371,393.013 607.279,63.398 613.262,66.85 
			42.353,396.466 		"/>
		<polygon fill-rule="evenodd" clip-rule="evenodd" fill="#696969" points="42.353,396.466 613.262,66.85 613.262,74.468 
			42.353,404.083 		"/>
		<polygon fill-rule="evenodd" clip-rule="evenodd" fill="#00669B" points="359.86,85.278 507.566,0 568.455,35.152 568.455,105.46 
			420.748,190.739 359.86,155.584 		"/>
		<path fill-rule="evenodd" clip-rule="evenodd" fill="#B3B3B3" d="M568.455,49.914V85.41l-52.168,30.12l-112.902,65.187
			l-37.176-21.466c8.86-1.146,18.438-3.988,28.299-8.909l94.928-54.805v-0.001L568.455,49.914z"/>
		<polygon fill-rule="evenodd" clip-rule="evenodd" fill="#00497A" points="359.86,155.584 359.86,85.278 420.748,120.431 
			420.748,190.739 		"/>
		<polygon fill-rule="evenodd" clip-rule="evenodd" fill="#3B91C4" points="359.86,85.278 420.748,120.431 568.455,35.152 
			507.566,0 		"/>
		<polygon fill-rule="evenodd" clip-rule="evenodd" fill="#C7C7C7" points="442.289,122.755 477.795,102.256 466.728,144.142 
			431.223,164.639 		"/>
		<polygon fill-rule="evenodd" clip-rule="evenodd" fill="#2A2A2A" points="480.08,156.484 480.08,100.874 525.747,74.509 
			525.747,130.118 		"/>
		<polygon fill-rule="evenodd" clip-rule="evenodd" fill="#B3B3B3" points="482.072,153.034 523.756,128.968 523.756,77.959 
			482.072,102.023 		"/>
		<polygon fill-rule="evenodd" clip-rule="evenodd" fill="#C7C7C7" points="482.072,153.034 506.348,139.02 522.25,78.827 
			496.979,93.417 482.072,149.836 		"/>
		<polygon fill-rule="evenodd" clip-rule="evenodd" fill="#2A2A2A" points="501.918,89.081 503.909,87.869 503.909,142.165 
			501.918,143.331 		"/>
		<polygon fill-rule="evenodd" clip-rule="evenodd" fill="#C7C7C7" points="540.986,65.776 562.033,53.624 550.965,95.506 
			529.919,107.659 		"/>
		<polygon fill-rule="evenodd" clip-rule="evenodd" fill="#00669B" points="205.351,174.483 353.058,89.206 413.948,124.358 
			413.948,194.667 266.241,279.946 205.351,244.792 		"/>
		<path fill-rule="evenodd" clip-rule="evenodd" fill="#B3B3B3" d="M413.948,139.12v35.497l-52.171,30.12l-112.9,65.184
			l-37.178-21.465c8.861-1.147,18.438-3.989,28.303-8.907l94.925-54.807l0,0L413.948,139.12z"/>
		<polygon fill-rule="evenodd" clip-rule="evenodd" fill="#00497A" points="205.351,244.792 205.351,174.483 266.241,209.637 
			266.241,279.946 		"/>
		<polygon fill-rule="evenodd" clip-rule="evenodd" fill="#3B91C4" points="205.351,174.483 266.241,209.637 413.948,124.358 
			353.058,89.206 		"/>
		<polygon fill-rule="evenodd" clip-rule="evenodd" fill="#C7C7C7" points="287.783,211.961 323.288,191.463 312.221,233.346 
			276.715,253.844 		"/>
		<polygon fill-rule="evenodd" clip-rule="evenodd" fill="#2A2A2A" points="325.574,245.689 325.574,190.08 371.24,163.712 
			371.24,219.324 		"/>
		<polygon fill-rule="evenodd" clip-rule="evenodd" fill="#B3B3B3" points="327.564,242.238 369.246,218.174 369.246,167.164 
			327.564,191.229 		"/>
		<polygon fill-rule="evenodd" clip-rule="evenodd" fill="#C7C7C7" points="327.564,242.238 351.839,228.224 367.744,168.034 
			342.471,182.622 327.564,239.042 		"/>
		<polygon fill-rule="evenodd" clip-rule="evenodd" fill="#2A2A2A" points="347.409,178.288 349.402,177.075 349.402,231.371 
			347.409,232.536 		"/>
		<polygon fill-rule="evenodd" clip-rule="evenodd" fill="#C7C7C7" points="386.477,154.98 407.525,142.829 396.459,184.712 
			375.41,196.866 		"/>
		<path fill-rule="evenodd" clip-rule="evenodd" fill="#00669B" d="M85.044,245.85c4.051-3.56,9.271-7.258,15.838-11.052
			l96.398-55.654l60.888,35.152v70.308l-1.901,1.098l-1.901,1.1l-1.905,1.1l-1.904,1.098l-1.903,1.1l-1.901,1.098l-1.905,1.098
			l-1.901,1.1l-1.901,1.098l-1.905,1.1l-1.901,1.1l-1.904,1.098l-1.902,1.1l-1.904,1.098l-1.899,1.1l-1.905,1.098l-1.904,1.098
			l-1.901,1.098l-1.903,1.1l-1.903,1.098l-1.905,1.1l-1.899,1.1l-1.904,1.1l-1.904,1.096l-1.902,1.098l-1.901,1.1l-1.905,1.1
			l-1.901,1.1l-1.901,1.098l-1.905,1.098l-1.904,1.098l-1.899,1.1l-1.905,1.098l-1.904,1.1l-1.902,1.1l-1.901,1.098l-1.904,1.1
			l-1.905,1.098l-1.899,1.1l-1.905,1.098l-1.903,1.098l-1.901,1.1l-1.903,1.098l-1.904,1.1l-1.905,1.098l-1.899,1.1l-1.904,1.1
			l-1.901,1.096l-1.905,1.1l-1.901,1.098l-1.905,1.1l-1.901,1.1l-1.901,1.098l-1.905,1.098l-1.901,1.1l-1.905,1.098l-1.901,1.098
			l-1.903,1.1l-1.903,1.1l-1.901,1.1l-1.904,1.098l-1.902,1.098l-1.901,1.1l-1.904,1.1c-19.773,11.414-65.764,23.252-84.044,3.934
			C24.497,329.151,59.301,267.175,85.044,245.85z"/>
		<path fill-rule="evenodd" clip-rule="evenodd" fill="#3B91C4" d="M85.044,245.85c4.051-3.56,9.271-7.258,15.838-11.052
			l96.398-55.654l60.888,35.152l-121.775,70.308c-27.208,15.707-44.864,51.281-43.036,83.854c-16.1,1.881-31.953-0.041-41.008-9.609
			C24.497,329.151,59.301,267.175,85.044,245.85z"/>
		<path fill-rule="evenodd" clip-rule="evenodd" fill="#B3B3B3" d="M136.394,299.366l121.775-70.308v35.496l-121.775,70.309
			c-37.292,21.893-91.395,13.518-92.322-21.037c2.892-12.6,8.667-25.525,15.608-37.035
			C56.012,302.962,93.537,320.743,136.394,299.366z"/>
		<polygon fill-rule="evenodd" clip-rule="evenodd" fill="#C7C7C7" points="154.734,288.776 190.24,268.278 179.173,310.163 
			143.667,330.661 		"/>
		<path fill-rule="evenodd" clip-rule="evenodd" fill="#CFCFCF" d="M94.858,346.874c-26.65,1.041-50.177-10.361-50.786-33.049
			c2.892-12.6,8.667-25.525,15.608-37.035c-2.933,20.92,20.456,36.477,51.846,30.961C103.329,319.239,97.515,332.874,94.858,346.874
			z"/>
		<polygon fill-rule="evenodd" clip-rule="evenodd" fill="#2A2A2A" points="192.522,322.507 192.522,266.896 238.189,240.53 
			238.189,296.142 		"/>
		<polygon fill-rule="evenodd" clip-rule="evenodd" fill="#B3B3B3" points="194.514,319.056 236.198,294.991 236.198,243.981 
			194.514,268.046 		"/>
		<polygon fill-rule="evenodd" clip-rule="evenodd" fill="#C7C7C7" points="194.514,319.056 218.792,305.042 234.693,244.848 
			209.42,259.438 194.514,315.856 		"/>
		<polygon fill-rule="evenodd" clip-rule="evenodd" fill="#2A2A2A" points="214.36,255.103 216.352,253.892 216.352,308.188 
			214.36,309.351 		"/>
	</g>
</g>
</svg>
