<?xml version="1.0" encoding="utf-8"?>
<!-- Generator: Adobe Illustrator 15.1.0, SVG Export Plug-In . SVG Version: 6.00 Build 0)  -->
<!DOCTYPE svg PUBLIC "-//W3C//DTD SVG 1.1//EN" "http://www.w3.org/Graphics/SVG/1.1/DTD/svg11.dtd">
<svg version="1.1" id="圖層_1" xmlns="http://www.w3.org/2000/svg" xmlns:xlink="http://www.w3.org/1999/xlink" x="0px" y="0px"
	 width="643.294px" height="489.518px" viewBox="0 0 643.294 489.518" enable-background="new 0 0 643.294 489.518"
	 xml:space="preserve">
<g>
	<path fill="#4DC8DB" d="M605.445,483.423c0,3.366-121.631,6.095-271.674,6.095c-150.04,0-271.674-2.729-271.674-6.095
		s121.634-6.092,271.674-6.092C483.814,477.332,605.445,480.057,605.445,483.423"/>
	<rect x="201.712" y="50.525" fill="#25BBD3" width="100.428" height="25.537"/>
	<rect x="174.24" y="75.204" fill="#6BCCC3" width="121.841" height="50.206"/>
	<rect x="158.883" y="122.851" fill="#CE7421" width="121.843" height="36.921"/>
	<rect x="268.186" y="90.891" fill="#3393B7" width="113.242" height="68.881"/>
	<rect x="279.248" y="50.525" fill="#FDB700" width="73.104" height="40.884"/>
	<rect x="229.652" y="50.011" fill="#D8F2EB" width="8.86" height="118.889"/>
	<rect x="307.926" y="50.011" fill="#D8F2EB" width="8.861" height="118.889"/>
	<path fill="#754114" d="M139.279,220.558c-22.14,14.951-2.892,31.117-2.892,31.117l29.484,38.166l26.855-20.399
		c13.652-10.549,12.888-17.092,5.585-26.545C188.406,230.076,161.419,205.604,139.279,220.558"/>
	<path fill="#995719" d="M166.063,284.429c-0.124-0.2-0.268-0.407-0.443-0.635l-30.75-39.805c-3.409-4.976-2.44-11.759,2.331-15.445
		c4.927-3.807,12.034-2.864,15.917,2.094l24.359,31.528c2.649,3.43,4.834,6.167,6.634,8.321l16.132-12.464l-41.985-54.349
		c-8.955-11.591-29.554-15.243-41.165-6.274l1.72-1.326c-16.231,12.538-19.243,35.834-6.729,52.032l37.749,48.86L166.063,284.429z"
		/>
	<path fill="#D1894D" d="M166.881,289.65c1.233-0.951,1.225-2.838-0.045-3.738c-3.951-2.798-9.378-2.855-13.363,0.225
		c-3.987,3.078-5.301,8.343-3.59,12.874c0.548,1.457,2.372,1.938,3.604,0.986L166.881,289.65z"/>
	<path fill="#D1894D" d="M202.55,262.094c0.87-0.672,0.882-1.967,0.043-2.671c-3.992-3.346-9.859-3.617-14.098-0.344
		c-4.24,3.274-5.457,9.022-3.23,13.728c0.471,0.989,1.728,1.307,2.597,0.635L202.55,262.094z"/>
	<path fill="#D1894D" d="M121.737,217.437l-16.124-0.088l-16.125-0.092c-10.459-0.058-18.97-8.662-18.911-19.121l0.187-34.148
		c0.058-10.46,8.663-18.97,19.122-18.912l32.249,0.177c10.46,0.058,18.968,8.664,18.911,19.123l-0.188,34.15
		C140.801,208.986,132.196,217.495,121.737,217.437"/>
	<path fill="#F1A2A5" d="M98.529,209.807l0.114,16.22c0.075,4.062,3.39,7.295,7.398,7.217l0.214-0.002
		c4.013-0.079,7.201-3.434,7.127-7.498l-0.11-15.855L98.529,209.807z"/>
	<path fill="#995719" d="M83.737,146.065c0,0-1.991-1.596-16.806,1.581c-13.026,2.795-28.718,16.086-32.93,23.466
		c-2.751,4.822-4.095,12.742,1.581,18.123c3.805,3.799,10.923,4.79,16.354,3.296c5.43-1.496,10.277-6.093,11.253-12.566l1.475-9.176
		c1.128-7.018,4.561-13.497,9.753-18.409L83.737,146.065z"/>
	<path fill="#FDE0CF" d="M125.92,197.173l-7.171-8.869c-4.4-5.158-6.415-7.918-6.378-14.698l0.159-28.888l-11.815-0.066
		l-0.159,28.891c-0.037,6.779-2.37,9.517-6.828,14.622l-7.294,8.791c-1.708,1.955-2.278,4.461-2.29,7.059l-0.032,5.604
		c-0.034,5.976,4.465,11.091,10.439,11.125c3.896,0.021,7.261-2.239,9.198-5.181l4.535,0.023c1.907,2.965,5.423,5.264,9.315,5.284
		c5.976,0.035,10.783-5.03,10.816-11.006l0.03-5.605C128.461,201.662,127.604,199.149,125.92,197.173"/>
	<path fill="#995719" d="M129.192,146.666c0,0,6.289,1.985,15.295,10.239c9.222,8.453,13.762,18.943,14.699,31.246l0.404,5.306
		c0.524,6.89-3.863,13.146-10.445,14.896c-5.196,1.38-10.74-0.345-14.309-4.455l-2.33-2.683c-3.512-4.045-4.519-9.722-2.609-14.716
		l3.317-8.679c2.541-6.642,2.814-13.967,0.78-20.819L129.192,146.666z"/>
	<path fill="#402A2A" d="M106.333,190.631v-0.006v0.002v-0.002V190.631c5.908,0.17,10.907,3.746,7.371,9.753
		c-6.52,11.068-11.722,5.474-15.746-0.087C94.002,194.834,98.95,190.727,106.333,190.631"/>
	<path fill="#402A2A" d="M92.181,175.3c0,1.698-1.377,3.076-3.076,3.076c-1.698,0-3.078-1.378-3.078-3.076
		c0-1.701,1.38-3.077,3.078-3.077C90.804,172.223,92.181,173.599,92.181,175.3"/>
	<path fill="#402A2A" d="M119.503,175.3c0,1.698,1.377,3.076,3.076,3.076c1.701,0,3.078-1.378,3.078-3.076
		c0-1.701-1.377-3.077-3.078-3.077C120.88,172.223,119.503,173.599,119.503,175.3"/>
	<rect x="86.396" y="374.921" width="18.46" height="19.939"/>
	<polyline fill="none" stroke="#12201C" stroke-width="4" stroke-miterlimit="10" points="171.315,162.253 171.315,144.531 
		367.738,144.531 367.738,163.731 	"/>
	
		<line fill="none" stroke="#12201C" stroke-width="4" stroke-miterlimit="10" x1="224.483" y1="146.008" x2="224.483" y2="166.684"/>
	
		<line fill="none" stroke="#12201C" stroke-width="4" stroke-miterlimit="10" x1="314.571" y1="143.054" x2="314.571" y2="163.731"/>
	<rect x="129.347" y="351.765" fill="#3393B7" width="132.917" height="64.983"/>
	<rect x="471.978" y="354.718" fill="#3393B7" width="132.918" height="64.983"/>
	<path fill="#6BCCC3" d="M640.162,342.431l-0.961-21.846c0,0-133.26-33.468-133.639-34.275L388.212,159.3H152.724L89.23,290.749
		l3.693,51.683H640.162z"/>
	<path fill="#25BBD3" d="M92.205,332.566l5.387,75.321l34.974,17.667c-3.959-37.604,29.298-64.189,62.377-64.189
		c33.518,0,67.32,26.585,62.443,64.245H479.64c-1.754-36.185,27.494-63.507,61.014-63.507c39.137,0,67.195,30.276,63.867,63.507
		l38.773-11.815l-3.568-81.229H92.205z"/>
	<path d="M194.942,370.963c-31.014,0-56.241,25.23-56.241,56.244c0,31.011,25.228,56.242,56.241,56.242
		c31.015,0,56.245-25.231,56.245-56.242C251.188,396.194,225.957,370.963,194.942,370.963"/>
	<path fill="#464C54" d="M194.942,397.13c-16.582,0-30.075,13.491-30.075,30.077c0,16.583,13.493,30.074,30.075,30.074
		c16.584,0,30.077-13.491,30.077-30.074C225.02,410.622,211.526,397.13,194.942,397.13"/>
	<path fill="#FFFFFF" d="M194.942,405.854c-11.774,0-21.351,9.578-21.351,21.354c0,11.774,9.576,21.354,21.351,21.354
		s21.354-9.579,21.354-21.354C216.297,415.432,206.717,405.854,194.942,405.854"/>
	<path fill="#C8CBCD" d="M194.942,412.99c-7.837,0-14.215,6.378-14.215,14.218c0,7.837,6.378,14.215,14.215,14.215
		c7.841,0,14.218-6.378,14.218-14.215C209.16,419.368,202.783,412.99,194.942,412.99"/>
	<path fill="#FFFFFF" d="M194.942,420.126c-3.903,0-7.078,3.175-7.078,7.081c0,3.902,3.175,7.078,7.078,7.078
		c3.904,0,7.082-3.176,7.082-7.078C202.024,423.301,198.847,420.126,194.942,420.126"/>
	<path d="M542.498,370.963c-31.014,0-56.244,25.23-56.244,56.244c0,31.011,25.23,56.242,56.244,56.242
		c31.016,0,56.242-25.231,56.242-56.242C598.74,396.194,573.513,370.963,542.498,370.963"/>
	<path fill="#464C54" d="M542.498,397.13c-16.582,0-30.072,13.491-30.072,30.077c0,16.583,13.49,30.074,30.072,30.074
		c16.584,0,30.078-13.491,30.078-30.074C572.576,410.622,559.082,397.13,542.498,397.13"/>
	<path fill="#FFFFFF" d="M542.498,405.854c-11.773,0-21.354,9.578-21.354,21.354c0,11.774,9.58,21.354,21.354,21.354
		c11.775,0,21.352-9.579,21.352-21.354C563.849,415.432,554.273,405.854,542.498,405.854"/>
	<path fill="#C8CBCD" d="M542.498,412.99c-7.84,0-14.217,6.378-14.217,14.218c0,7.837,6.377,14.215,14.217,14.215
		s14.215-6.378,14.215-14.215C556.712,419.368,550.337,412.99,542.498,412.99"/>
	<path fill="#FFFFFF" d="M542.498,420.126c-3.902,0-7.08,3.175-7.08,7.081c0,3.902,3.178,7.078,7.08,7.078
		c3.904,0,7.08-3.176,7.08-7.078C549.578,423.301,546.402,420.126,542.498,420.126"/>
	<path fill="#3393B7" d="M139.808,392.01c-3.426-0.037-33.478-9.985-44.676-13.732v31.885l37.783,15.323
		C132.035,416.442,134.931,400.889,139.808,392.01"/>
	<path fill="#3393B7" d="M642.31,416.52v-32.041l-40.367,18.608c0,0,3.691,14.644,2.461,28.43L642.31,416.52z"/>
	<polygon fill="#FD7000" points="92.549,342.411 94.885,365.301 133.777,365.057 133.777,342.411 	"/>
	<polygon fill="#FDB700" points="640.396,341.928 641.324,369.014 627.048,369.014 616.71,342.549 	"/>
	<rect x="319.862" y="301.551" fill="#3393B7" width="47.26" height="10.338"/>
	<rect x="215.004" y="301.551" fill="#3393B7" width="47.26" height="10.338"/>
	<path fill="#3393B7" d="M507.552,376.364v-47.833h-13.049v59.063C498.718,383.674,502.964,379.797,507.552,376.364"/>
	<path fill="#3393B7" d="M213.406,370.361v-46.258H200.36v41.716C204.874,366.989,209.221,368.517,213.406,370.361"/>
	<polygon fill="#3393B7" points="640.146,332.566 639.466,320.75 91.781,320.75 92.893,332.566 	"/>
	<rect x="255.618" y="406.41" fill="#3393B7" width="225.959" height="25.442"/>
	<path fill="#A6E2EC" d="M373.669,29.888c-0.825-1.594-1.921-3.009-3.312-4.225l-3.222-2.121c-2.29-1.083-4.693-1.541-7.217-1.371
		c-1.004,0.031-1.965,0.197-2.885,0.479c-0.92-6.995-7.059-11.341-13.892-11.341c-0.18,0-0.353,0.025-0.524,0.033
		c-0.143-0.703-0.283-1.406-0.425-2.111c-0.794-2.316-2.111-4.284-3.958-5.898c-1.016-0.669-2.03-1.336-3.045-2.004
		c-2.159-1.022-4.432-1.455-6.817-1.297c-1.807,0.062-3.471,0.547-4.989,1.457c-1.704,0.667-3.145,1.726-4.318,3.185
		c-1.281,1.365-2.129,2.938-2.551,4.718c-0.691,1.631-0.94,3.348-0.749,5.145c0.199,0.992,0.397,1.982,0.596,2.975
		c-1.374,0.121-2.653,0.519-3.829,1.224c-1.488,0.581-2.747,1.507-3.771,2.779c-1.044,1.113-1.748,2.391-2.136,3.82
		c-1.123-0.215-2.274-0.284-3.454-0.206c-1.771,0.058-3.401,0.533-4.888,1.428c-1.672,0.649-3.082,1.69-4.232,3.118
		c-0.063,0.069-0.116,0.145-0.18,0.215H373.669z"/>
	<path fill="#A6E2EC" d="M491.425,98.068l-0.115-0.594c-0.637-1.854-1.689-3.425-3.166-4.717l-2.432-1.602
		c-1.727-0.815-3.543-1.162-5.449-1.035c-1.445,0.049-2.775,0.438-3.986,1.165c-1.365,0.531-2.516,1.38-3.453,2.545
		c-0.23,0.245-0.436,0.5-0.633,0.764c-0.607-1.646-1.566-3.058-2.895-4.221c-0.773-0.507-1.541-1.163-2.314-1.669
		c-1.637-0.777-3.363-1.134-5.174-1.134h-0.006c0.031,0,0.033-0.772-0.016-1.249c-0.172-0.854-0.342-1.636-0.516-2.491
		c-0.594-1.746-1.59-3.191-2.98-4.405c-0.764-0.505-1.527-0.988-2.293-1.492c-1.629-0.77-3.34-1.086-5.137-0.967
		c-1.359,0.044-2.613,0.416-3.756,1.104c-1.283,0.498-2.367,1.301-3.254,2.399c-0.963,1.026-1.604,2.215-1.92,3.555
		c-0.52,1.228-0.707,2.521-0.563,3.876c0.17,0.854,0.342,1.711,0.51,2.567c0.078,0.217,0.176,0.418,0.262,0.628
		c-0.602,0.165-1.182,0.407-1.732,0.735c-1.16,0.455-2.141,1.177-2.941,2.173c-0.875,0.931-1.451,2.001-1.74,3.217
		c-0.119,0.279-0.217,0.561-0.297,0.848H491.425z"/>
	<path fill="#A6E2EC" d="M570.488,72.467c-0.004-0.005,0-0.014-0.004-0.021c-0.266-1.328-0.531-2.657-0.795-3.987
		c-0.93-2.712-2.473-5.015-4.635-6.903c-1.188-0.784-2.375-1.564-3.564-2.346c-2.4-1.139-4.918-1.644-7.557-1.533
		c-0.385-2.159-1.191-4.25-2.43-6.109c-1.664-2.472-3.838-4.362-6.52-5.667c-2.584-1.223-5.301-1.74-8.15-1.55l-0.068,0.008
		c-2.842,0.209-5.453,1.096-7.834,2.665c-2.467,1.659-4.352,3.829-5.654,6.499c-1.143,2.417-1.66,4.953-1.564,7.604
		c-0.9,0.286-1.766,0.664-2.592,1.159c-2.041,0.795-3.762,2.063-5.164,3.809c-1.531,1.632-2.549,3.515-3.055,5.645
		c-0.102,0.24-0.17,0.487-0.256,0.729H570.488z"/>
	<path fill="#A6E2EC" d="M53.683,275.233c-0.006-0.135-0.006-0.271-0.02-0.408c-0.157-0.782-0.314-1.567-0.471-2.352
		c-0.546-1.595-1.457-2.951-2.727-4.064c-0.699-0.458-1.399-0.921-2.099-1.379c-1.488-0.706-3.055-1.004-4.699-0.894
		c-1.246,0.04-2.392,0.375-3.438,1c-0.023,0.013-0.042,0.023-0.063,0.032c0.712-0.9,1.213-1.897,1.477-3.014
		c0.519-1.227,0.708-2.513,0.563-3.863c-0.17-0.854-0.342-1.707-0.51-2.562c-0.598-1.742-1.59-3.219-2.976-4.431
		c-0.763-0.505-1.525-1.004-2.289-1.505c-1.621-0.768-3.329-1.095-5.12-0.976c-1.359,0.047-2.607,0.409-3.75,1.097
		c-1.28,0.498-2.361,1.295-3.242,2.392c-0.964,1.026-1.602,2.206-1.918,3.542c-0.52,1.225-0.707,2.515-0.563,3.864
		c0.173,0.854,0.342,1.708,0.514,2.563c0.422,1.233,1.053,2.328,1.875,3.299c-0.915,0.441-1.708,1.062-2.369,1.881
		c-0.853,0.912-1.419,1.958-1.698,3.141c-0.361,0.846-0.534,1.726-0.537,2.637H53.683z"/>
	<path fill="#A6E2EC" d="M75.219,94.221h64.717c-0.716-1.475-1.705-2.766-2.97-3.874c-0.914-0.602-1.829-1.204-2.743-1.805
		c-1.948-0.923-3.994-1.313-6.143-1.167c-1.63,0.051-3.13,0.489-4.497,1.312c-0.56,0.217-1.074,0.5-1.568,0.811l-0.708-1.442
		c-0.608-1.022-1.159-1.755-2.321-2.677c-0.944-0.621-1.889-1.241-2.832-1.862c-0.933-0.609-1.985-0.958-3.162-1.052
		c-1.073-0.063-2.146-0.124-3.221-0.187c-0.928,0.019-1.816,0.176-2.663,0.456c-0.357,0.097-0.712,0.198-1.056,0.314
		c-0.037,0.011-0.073,0.027-0.107,0.044c-0.583,0.281-1.165,0.57-1.744,0.855c0.446-1.188,0.613-2.432,0.474-3.732
		c-0.179-0.896-0.358-1.794-0.537-2.69c-0.627-1.831-1.668-3.385-3.128-4.659c-0.799-0.527-1.601-1.056-2.402-1.582
		c-1.707-0.809-3.502-1.149-5.384-1.022c-1.427,0.046-2.739,0.43-3.938,1.151c-1.347,0.521-2.483,1.361-3.409,2.512
		c-1.012,1.078-1.684,2.32-2.018,3.728c-0.543,1.286-0.741,2.639-0.589,4.061c0.01,0.056,0.021,0.11,0.033,0.164
		c-0.431,0.176-0.851,0.373-1.256,0.618c-1.527,0.594-2.82,1.546-3.873,2.853c-1.148,1.227-1.91,2.637-2.289,4.234
		c-0.62,1.463-0.844,3-0.671,4.615C75.216,94.203,75.216,94.212,75.219,94.221"/>
	<path fill="#A6E2EC" d="M540.884,224.33c0.051,0.154,0.127,0.295,0.184,0.448h93.414c-0.006-0.297-0.01-0.592-0.041-0.895
		l-0.691-3.455c-0.805-2.351-2.145-4.345-4.016-5.982c-1.029-0.678-2.057-1.356-3.086-2.032c-2.191-1.037-4.496-1.476-6.914-1.313
		c-1.836,0.059-3.521,0.552-5.063,1.476c-1.727,0.674-3.188,1.751-4.379,3.228c-0.818,0.875-1.441,1.84-1.914,2.88
		c-0.656-0.946-1.422-1.82-2.316-2.604c-1.043-0.685-2.082-1.372-3.125-2.055c-2.215-1.051-4.547-1.493-6.988-1.329
		c-1.855,0.061-3.561,0.559-5.117,1.493c-0.023,0.011-0.043,0.023-0.066,0.032c0.037-0.574,0.043-1.158-0.021-1.754
		c-0.213-1.071-0.426-2.141-0.643-3.213c-0.746-2.184-1.99-4.04-3.729-5.559c-0.959-0.633-1.914-1.262-2.871-1.891
		c-2.037-0.965-4.18-1.373-6.428-1.223c-0.77,0.026-1.504,0.144-2.217,0.332c-0.785-1.86-1.924-3.481-3.471-4.834l-2.953-1.943
		c-2.096-0.99-4.299-1.408-6.607-1.257c-1.752,0.059-3.365,0.528-4.838,1.414c-1.654,0.644-3.047,1.672-4.186,3.085
		c-1.24,1.325-2.066,2.849-2.473,4.576c-0.672,1.58-0.91,3.241-0.727,4.984c0.158,0.793,0.316,1.587,0.477,2.38
		c-1.195,0.153-2.316,0.524-3.352,1.147c-1.439,0.561-2.652,1.455-3.641,2.683c-1.08,1.151-1.795,2.476-2.15,3.976
		c-0.582,1.374-0.791,2.817-0.631,4.332C540.5,222.416,540.691,223.373,540.884,224.33"/>
	<path fill="#25BBD3" d="M16.983,378.615c0,0,2.678-0.494,6.692-0.846c2.009-0.188,4.351-0.347,6.859-0.45
		c1.254-0.041,2.551-0.121,3.868-0.131c1.32-0.014,2.659-0.034,3.996-0.048c1.338,0.014,2.677,0.031,3.994,0.048
		c1.319,0,2.615,0.087,3.869,0.124c2.51,0.105,4.852,0.263,6.861,0.454c4.014,0.352,6.69,0.849,6.69,0.849s-2.677,0.497-6.69,0.849
		c-2.009,0.19-4.351,0.35-6.861,0.452c-1.253,0.038-2.55,0.125-3.869,0.125c-1.317,0.017-2.656,0.034-3.994,0.048
		c-1.337-0.014-2.676-0.034-3.996-0.048c-1.317-0.009-2.613-0.09-3.868-0.13c-2.508-0.104-4.851-0.264-6.859-0.45
		C19.661,379.109,16.983,378.615,16.983,378.615"/>
	<path fill="#25BBD3" d="M22.891,393.384c0,0,1.938-0.494,4.846-0.846c1.456-0.19,3.15-0.347,4.968-0.453
		c1.816-0.112,3.756-0.179,5.693-0.179c1.939,0,3.876,0.061,5.694,0.177c1.817,0.104,3.513,0.262,4.969,0.452
		c2.906,0.352,4.845,0.849,4.845,0.849s-1.938,0.495-4.845,0.848c-1.456,0.19-3.151,0.349-4.969,0.452
		c-1.817,0.113-3.755,0.177-5.694,0.177c-1.938,0-3.877-0.069-5.693-0.183c-1.818-0.104-3.513-0.262-4.968-0.449
		C24.829,393.876,22.891,393.384,22.891,393.384"/>
	<path fill="#25BBD3" d="M0,386c0,0,4.799-0.493,12-0.846c3.602-0.19,7.799-0.347,12.3-0.452c2.25-0.038,4.575-0.122,6.937-0.127
		c2.361-0.017,4.762-0.035,7.162-0.053c2.399,0.018,4.799,0.036,7.164,0.05c2.36,0.003,4.686,0.089,6.935,0.127
		c4.502,0.104,8.701,0.262,12.3,0.452c7.2,0.353,12,0.849,12,0.849s-4.8,0.497-12,0.849c-3.599,0.189-7.798,0.348-12.3,0.452
		c-2.25,0.038-4.575,0.125-6.935,0.125c-2.364,0.017-4.764,0.034-7.164,0.048c-2.4-0.014-4.801-0.034-7.162-0.048
		c-2.362-0.01-4.687-0.09-6.937-0.13c-4.5-0.104-8.698-0.264-12.3-0.451C4.799,386.493,0,386,0,386"/>
	<polygon points="452.451,251.604 384.003,172.326 318.385,172.326 318.385,251.604 	"/>
	<path fill="#FDB700" d="M387.302,226.681c0,0,1.543,0.282,4.242,0.773c2.721,0.474,6.617,1.186,11.305,1.899
		c4.688,0.708,10.156,1.534,15.988,2.215c2.916,0.337,5.922,0.654,8.939,0.913c3.006,0.253,6.07,0.465,8.898,0.501
		c1.398,0.026,2.779-0.042,3.666-0.131l0.158-0.015l0.084-0.006l0.037-0.003c0.373-0.091-0.484,0.121-0.381,0.095l0.039-0.007
		l0.582-0.127l0.545-0.122c0.029-0.016,0.055-0.026,0.084-0.029c0.031-0.007,0.063-0.007,0.098-0.003
		c0.068-0.017,0.211-0.079,0.314-0.115c0.229-0.093,0.436-0.14,0.693-0.273c1.986-0.863,4.293-2.418,6.426-4.042
		c4.332-3.306,8.184-7.146,11.42-10.444c3.244-3.326,5.779-6.298,7.557-8.363c1.719-2.063,2.703-3.243,2.703-3.243l0.117-0.143
		c2.025-2.432,5.637-2.762,8.066-0.738c2.299,1.914,2.705,5.264,1.035,7.676c0,0-0.242,0.352-0.701,1.01
		c-0.449,0.628-1.111,1.551-1.953,2.727c-1.686,2.335-4.17,5.594-7.262,9.482c-1.553,1.937-3.281,4.016-5.199,6.183
		c-1.926,2.156-4.014,4.415-6.395,6.703c-2.418,2.27-4.996,4.595-8.559,6.736c-0.418,0.272-0.939,0.526-1.422,0.783
		c-0.256,0.13-0.467,0.25-0.762,0.387l-1.012,0.424l-1.027,0.396l-0.6,0.204l-0.568,0.19l-0.035,0.016l-0.453,0.109l-0.105,0.025
		l-0.215,0.046l-0.426,0.09c-2.256,0.462-4.072,0.629-5.871,0.785c-3.568,0.291-6.904,0.368-10.189,0.406
		c-3.279,0.035-6.461,0-9.535-0.064c-6.137-0.123-11.822-0.291-16.691-0.507c-4.869-0.211-8.924-0.386-11.766-0.51
		c-2.861-0.153-4.498-0.24-4.498-0.24c-6.025-0.32-10.652-5.466-10.332-11.491c0.323-6.029,5.47-10.653,11.496-10.333
		c0.447,0.023,0.885,0.074,1.314,0.148L387.302,226.681z"/>
	<path fill="#FDD9C3" d="M478.896,214.474l-9.742-6.681c0,0,1.678-3.732,1.564-9.262c-0.115-5.529-0.725-9.666,1.66-7.045
		c2.389,2.617,2.158,7.623,2.158,7.623s4.434-11.352,6.58-11.954s-2.061,10.658-2.061,10.658s6.537-11.408,8.459-10.595
		c1.926,0.815-5.049,12.134-5.049,12.134s7.143-9.261,8.727-7.646c1.582,1.617-6.293,10.379-6.293,10.379s5.447-3.929,6.252-2.928
		C491.957,200.161,478.896,214.474,478.896,214.474"/>
	<path fill="#FDB700" d="M349.626,266.709c5.089,12.567,22.148,17.52,38.108,11.063c15.959-6.459,24.775-21.882,19.689-34.45
		c-5.084-12.567-22.146-17.521-38.105-11.062C353.359,238.719,344.541,254.141,349.626,266.709"/>
	<path fill="#FDD9C3" d="M331.296,194.022c2.622,25.278,28.47,43.313,50.522,41.024c22.053-2.288,43.645-25.242,41.023-50.521
		c-2.621-25.278-25.242-43.643-50.519-41.021C347.042,146.126,328.674,168.743,331.296,194.022"/>
	<path fill="#FDD9C3" d="M370.347,233.864c0.616,5.955,5.941,10.237,11.895,9.604l0.467-0.05c5.953-0.638,10.289-5.885,9.672-11.839
		l-0.66-6.377c-0.617-5.957-5.953-10.332-11.904-9.696l-0.473,0.051c-5.952,0.636-10.279,5.977-9.661,11.93L370.347,233.864z"/>
	<g>
		<g>
			<defs>
				<rect id="SVGID_1_" x="345.796" y="217.636" width="66.415" height="17.606"/>
			</defs>
			<clipPath id="SVGID_2_">
				<use xlink:href="#SVGID_1_"  overflow="visible"/>
			</clipPath>
			<path clip-path="url(#SVGID_2_)" fill="#453434" d="M382.031,229.393c11.256-1.166,21.557-5.4,30.18-11.757
				c-7.865,9.596-19.063,16.235-30.393,17.41c-12.413,1.287-26.024-3.86-36.022-13.115
				C356.561,227.866,369.097,230.737,382.031,229.393"/>
		</g>
	</g>
	<path fill="#402A2A" d="M397.189,190.28c-0.184-1.773-1.766-3.06-3.537-2.877c-1.773,0.185-3.059,1.769-2.875,3.539
		c0.186,1.771,1.768,3.057,3.539,2.874C396.087,193.631,397.371,192.047,397.189,190.28"/>
	<path fill="#402A2A" d="M363.994,193.724c-0.185-1.774-1.768-3.061-3.539-2.876c-1.769,0.184-3.058,1.768-2.873,3.539
		c0.182,1.771,1.769,3.054,3.539,2.873C362.89,197.077,364.179,195.492,363.994,193.724"/>
	<g opacity="0.4">
		<g>
			<defs>
				<rect id="SVGID_3_" x="355.802" y="196.105" width="45.135" height="11.389"/>
			</defs>
			<clipPath id="SVGID_4_">
				<use xlink:href="#SVGID_3_"  overflow="visible"/>
			</clipPath>
			<path clip-path="url(#SVGID_4_)" fill="#FDAEAE" d="M400.921,199.46c-0.225-2.184-3.244-3.663-6.738-3.3
				c-3.498,0.364-6.146,2.429-5.922,4.612c0.229,2.185,3.246,3.664,6.74,3.3C398.5,203.71,401.15,201.644,400.921,199.46"/>
			<path clip-path="url(#SVGID_4_)" fill="#FDAEAE" d="M368.477,202.827c-0.225-2.184-3.245-3.663-6.741-3.3
				c-3.495,0.362-6.146,2.429-5.921,4.614c0.228,2.185,3.245,3.662,6.74,3.298C366.054,207.078,368.704,205.01,368.477,202.827"/>
		</g>
	</g>
	<path fill="#FDD9C3" d="M325.873,201.371c0.383,3.706,3.7,6.399,7.409,6.016c3.708-0.385,6.398-3.701,6.015-7.408
		c-0.387-3.707-3.701-6.4-7.407-6.017C328.181,194.346,325.489,197.662,325.873,201.371"/>
	<path fill="#FDD9C3" d="M417.218,191.894c0.385,3.707,3.701,6.401,7.408,6.018c3.707-0.387,6.4-3.704,6.018-7.41
		c-0.387-3.708-3.705-6.4-7.41-6.014C419.527,184.871,416.832,188.187,417.218,191.894"/>
	<path fill="#FD6760" d="M367.546,211.123c0.986,6.605,6.994,11.333,13.704,10.636c6.709-0.695,11.619-6.554,11.229-13.221
		L367.546,211.123z"/>
	<g>
		<defs>
			<path id="SVGID_5_" d="M367.546,211.123c0.986,6.607,6.994,11.331,13.704,10.635c6.709-0.694,11.619-6.553,11.227-13.222
				L367.546,211.123z"/>
		</defs>
		<clipPath id="SVGID_6_">
			<use xlink:href="#SVGID_5_"  overflow="visible"/>
		</clipPath>
		<path clip-path="url(#SVGID_6_)" fill="#F1A2A5" d="M397.945,224.341c0.695,6.689-4.166,12.676-10.854,13.369
			c-6.689,0.694-12.673-4.167-13.368-10.856c-0.695-6.688,4.165-12.671,10.854-13.366
			C391.267,212.794,397.253,217.655,397.945,224.341"/>
	</g>
	<path fill="#CE7421" d="M331.889,193.962c0,0,9.267-16.756,24.035-14.355c12.397,2.015,37.66-2.954,39.875-21.046
		c0,0,6.5,21.942,27.436,25.927c0,0,3.58-28.142-32.973-45.864l-3.324-7.754l-2.584,5.908c0,0-29.823,0.441-45.414,18.83
		C324.54,172.592,331.889,193.962,331.889,193.962"/>
	<path fill="#CE7421" d="M330.263,177.391c-0.369,1.478-2.215,25.845,8.861,44.122c0,0-7.568-30.276,3.508-39.137L330.263,177.391z"
		/>
	<path fill="#CE7421" d="M420.835,169.225c0.713,1.347,8.986,23.457,3.037,41.071c0,0-2.033-25.353-9.506-35.683L420.835,169.225z"
		/>
	<polygon fill="#D8F2EB" points="447.986,246.435 318.385,246.435 318.385,287.522 483.458,287.522 	"/>
	<path fill="#FFFFFF" d="M332.294,264.158c2.077-0.852,4.165-1.671,6.256-2.458c2.101-0.77,4.186-1.584,6.291-2.322l6.318-2.224
		c2.102-0.751,4.222-1.435,6.333-2.155l1.616-0.551l1.223,1.67c3.793,5.192,7.549,10.413,11.209,15.689l-5.002-1.119
		c4.506-3.229,9.061-6.375,13.676-9.424c2.303-1.537,4.621-3.047,6.955-4.529c2.318-1.505,4.674-2.954,7.023-4.413l3.848-2.397
		l2.275,3.872c1.963,3.328,3.852,6.697,5.77,10.049c1.877,3.378,3.783,6.738,5.613,10.145l-5.449-1.289
		c5.279-3.152,10.623-6.199,15.994-9.21c2.695-1.491,5.389-2.98,8.111-4.434c2.711-1.46,5.463-2.858,8.197-4.292l1.795-0.94
		l0.441,1.707c0.561,2.158,1.045,4.339,1.572,6.505c0.51,2.172,0.988,4.355,1.436,6.551c-1.029-1.987-2.027-3.988-2.99-6.003
		c-0.953-2.016-1.941-4.019-2.861-6.048l2.238,0.767c-2.438,1.89-4.855,3.815-7.309,5.677c-2.449,1.87-4.926,3.706-7.4,5.539
		c-4.967,3.634-9.959,7.231-15.016,10.727l-3.186,2.198l-2.268-3.487c-2.107-3.242-4.139-6.527-6.201-9.796
		c-2.016-3.294-4.066-6.568-6.045-9.886l6.125,1.474c-2.33,1.492-4.648,2.998-7.008,4.446c-2.34,1.471-4.699,2.915-7.076,4.332
		c-4.736,2.858-9.534,5.619-14.385,8.299l-3.291,1.816l-1.71-2.936c-3.231-5.553-6.369-11.163-9.465-16.8l2.836,1.119
		c-2.195,0.387-4.385,0.811-6.589,1.169l-6.604,1.096c-2.201,0.369-4.423,0.666-6.632,1.001
		C336.747,263.615,334.523,263.904,332.294,264.158"/>
	<polygon fill="#D8F2EB" points="160.006,172.326 118.27,259.46 200.235,286.783 219.284,172.326 	"/>
	<path fill="#FFFFFF" d="M163.193,195.483c4.343-1.003,8.704-1.857,13.072-2.684c2.181-0.434,4.374-0.778,6.565-1.163l6.588-1.08
		c2.21-0.323,4.41-0.639,6.678-0.893l1.748-0.151c0.303-0.021,0.608-0.038,0.962-0.041c0.178-0.003,0.362-0.001,0.608,0.015
		c0.121,0.009,0.272,0.022,0.478,0.06c0.131,0.026,0.239,0.044,0.481,0.127c0.063,0.016,0.309,0.115,0.484,0.214
		c0.05,0.023,0.277,0.16,0.458,0.315c0.194,0.182,0.287,0.213,0.611,0.709c0.256,0.441,0.399,0.86,0.417,1.419
		c0.025,0.548-0.193,1.152-0.282,1.302c-0.104,0.236-0.32,0.536-0.432,0.658c-0.081,0.091-0.17,0.181-0.261,0.265
		c-0.233,0.201-0.243,0.193-0.37,0.287l-0.229,0.14l-0.095,0.052c-0.092,0.049,0.389-0.216,0.179-0.098l-0.042,0.03l-0.082,0.063
		c-0.089,0.076-0.271,0.187-0.282,0.232c-0.104,0.125-0.145,0.177-0.311,0.337l-1.111,1.117c-3.029,3.079-6.044,6.343-9.078,9.538
		c-6.057,6.425-12.142,12.845-18.306,19.185c-6.141,6.367-12.377,12.646-18.615,18.905l-4.358-7.284
		c14.315-4.047,28.722-7.784,43.265-11.064l6.158-1.39l-2.784,5.284l-4.291,8.145c-1.442,2.711-2.936,5.395-4.4,8.095
		c-1.456,2.706-2.975,5.38-4.491,8.057c-1.504,2.683-3.064,5.336-4.648,7.981c0.957-2.931,1.938-5.85,2.978-8.743
		c1.026-2.901,2.046-5.802,3.136-8.673c1.078-2.877,2.124-5.767,3.227-8.631l3.334-8.581l3.379,3.894
		c-14.014,5.088-28.159,9.718-42.395,14.041l-16.267,4.941l11.907-12.224c6.188-6.352,12.413-12.648,18.767-18.827
		c6.335-6.2,12.771-12.296,19.354-18.268c3.298-2.991,6.603-5.928,10.104-8.827l1.37-1.087c0.254-0.199,0.646-0.49,0.972-0.715
		c0.195-0.142,0.259-0.16,0.396-0.245l0.307-0.179l-0.138,0.089c-0.101,0.071-0.079,0.048-0.287,0.225
		c-0.08,0.072-0.154,0.147-0.224,0.228c-0.101,0.11-0.309,0.396-0.404,0.618c-0.077,0.134-0.297,0.721-0.268,1.252
		c0.023,0.538,0.15,0.946,0.4,1.37c0.32,0.479,0.396,0.498,0.576,0.672c0.169,0.145,0.385,0.269,0.414,0.285
		c0.144,0.087,0.361,0.167,0.392,0.176c0.176,0.057,0.216,0.061,0.28,0.072c0.07,0.012,0.083,0.006,0.067,0.002
		c-0.03-0.011-0.119-0.023-0.221-0.033c-0.198-0.021-0.448-0.034-0.695-0.045l-1.571-0.028c-2.152-0.017-4.361,0.029-6.563,0.084
		l-13.279,0.31C172.089,195.405,167.649,195.497,163.193,195.483"/>
	<polygon points="304.291,263.891 306.551,172.326 231.151,172.326 217.807,263.891 	"/>
	<path fill="#FD3E3C" d="M297.662,262.614c0,13.558-13.958,24.55-31.174,24.55c-17.217,0-31.174-10.992-31.174-24.55
		s13.957-24.547,31.174-24.547C283.704,238.067,297.662,249.056,297.662,262.614"/>
	<polygon fill="#D8F2EB" points="218.238,260.938 214.363,287.522 303.707,287.522 304.363,260.938 	"/>
	<path fill="#FFFFFF" d="M251.805,277.449c1.327-1.208,2.694-2.337,4.098-3.396c1.397-1.072,2.809-2.119,4.252-3.101
		c2.877-1.981,5.826-3.827,8.83-5.567l3.581-2.074l0.472,4.364c0.214,1.965,0.397,3.929,0.531,5.899
		c0.153,1.967,0.247,3.938,0.32,5.91l-4.141-2.422c3.614-1.631,7.293-3.124,11.052-4.454c1.887-0.655,3.776-1.296,5.72-1.829
		c1.927-0.565,3.883-1.073,5.899-1.454c-1.552,1.345-3.165,2.562-4.806,3.719c-1.627,1.188-3.306,2.27-4.99,3.337
		c-3.378,2.12-6.839,4.07-10.361,5.885l-3.76,1.938l-0.383-4.359c-0.17-1.967-0.322-3.935-0.416-5.903
		c-0.113-1.971-0.177-3.943-0.21-5.92l4.057,2.293c-3.151,1.46-6.356,2.813-9.633,4.029c-1.632,0.621-3.298,1.175-4.978,1.703
		C255.267,276.586,253.556,277.06,251.805,277.449"/>
	<path fill="#FD3E3C" d="M261.017,257.616c0,0-1.482,0.694-4.08,1.908c-2.585,1.18-6.28,2.864-10.713,4.887
		c-4.431,2.024-9.641,4.315-15.284,6.732c-2.822,1.209-5.761,2.435-8.811,3.635c-3.063,1.197-6.184,2.377-9.602,3.443
		c-1.724,0.531-3.471,1.059-5.736,1.477l-0.429,0.076l-0.217,0.034l-0.106,0.021l-0.462,0.066l-0.037,0.003l-0.597,0.034
		l-0.635,0.035l-1.1,0.02l-1.098-0.015c-0.323-0.018-0.566-0.048-0.852-0.071c-0.542-0.058-1.122-0.098-1.612-0.19
		c-4.104-0.652-7.369-1.838-10.462-3.034c-3.063-1.229-5.844-2.542-8.44-3.819c-2.591-1.287-4.971-2.567-7.14-3.779
		c-4.323-2.446-7.849-4.534-10.288-6.065c-1.221-0.773-2.179-1.383-2.833-1.798c-0.669-0.435-1.03-0.669-1.03-0.669
		c-2.647-1.728-3.395-5.275-1.667-7.926c1.631-2.505,4.892-3.312,7.482-1.934l0.186,0.101c0,0,1.353,0.725,3.72,1.994
		c2.422,1.246,5.888,3.052,10.143,4.915c4.236,1.846,9.248,3.96,14.504,5.399c2.586,0.704,5.31,1.281,7.473,1.338
		c0.287,0.026,0.503-0.008,0.748-0.008c0.106-0.006,0.262,0,0.331-0.012c0.032-0.015,0.063-0.028,0.093-0.034
		c0.028-0.006,0.058-0.006,0.088-0.003l0.552-0.093l0.589-0.102l0.036-0.005c0.105-0.015-0.769,0.109-0.392,0.052l0.041-0.011
		l0.078-0.023l0.154-0.046c0.853-0.251,2.159-0.708,3.445-1.253c2.607-1.096,5.371-2.442,8.063-3.804
		c2.701-1.373,5.367-2.796,7.943-4.2c5.152-2.818,9.911-5.637,13.989-8.051c4.078-2.419,7.423-4.54,9.768-6
		c2.318-1.47,3.644-2.309,3.644-2.309l0.074-0.045c5.097-3.23,11.85-1.717,15.077,3.384c3.229,5.097,1.714,11.847-3.383,15.076
		C261.854,257.188,261.411,257.428,261.017,257.616"/>
	<path fill="#FDD9C3" d="M160.978,261.573l6.525-9.845c0,0-2.954-2.83-4.925-7.999c-1.97-5.17-2.953-9.23-4.185-5.908
		c-1.229,3.324,0.862,7.875,0.862,7.875s-8.368-8.861-10.583-8.613c-2.215,0.246,5.907,9.106,5.907,9.106
		s-10.338-8.122-11.814-6.646c-1.478,1.478,9.229,9.354,9.229,9.354s-10.092-5.907-10.955-3.816
		c-0.859,2.092,9.725,7.261,9.725,7.261s-6.522-1.598-6.893-0.37C143.504,253.205,160.978,261.573,160.978,261.573"/>
	<path fill="#FDD9C3" d="M287.391,188.358c7.053,24.418-10.146,50.828-31.443,56.98c-21.302,6.149-49.929-7.026-56.979-31.447
		c-7.051-24.416,7.027-49.925,31.444-56.974C254.828,149.864,280.338,163.941,287.391,188.358"/>
	<path fill="#FDD9C3" d="M266.155,240c1.662,5.751-1.656,11.76-7.407,13.421l-0.456,0.13c-5.749,1.662-11.76-1.652-13.422-7.403
		l-1.77-6.131c-1.659-5.753,1.654-11.763,7.407-13.424l0.455-0.13c5.751-1.661,11.76,1.655,13.422,7.407L266.155,240z"/>
	<g>
		<g>
			<defs>
				<rect id="SVGID_7_" x="221.24" y="219.667" width="63.176" height="27.17"/>
			</defs>
			<clipPath id="SVGID_8_">
				<use xlink:href="#SVGID_7_"  overflow="visible"/>
			</clipPath>
			<path clip-path="url(#SVGID_8_)" fill="#453434" d="M253.627,240.178c-10.87,3.139-22.005,3.078-32.387,0.422
				c10.893,5.944,23.764,7.896,34.705,4.738c11.988-3.461,22.675-13.342,28.473-25.67
				C276.666,229.207,266.12,236.57,253.627,240.178"/>
		</g>
	</g>
	<path fill="#402A2A" d="M224.904,209.605c-0.493-1.713,0.489-3.499,2.2-3.991c1.713-0.497,3.499,0.489,3.993,2.203
		c0.494,1.707-0.492,3.494-2.205,3.988C227.183,212.3,225.397,211.313,224.904,209.605"/>
	<path fill="#402A2A" d="M256.967,200.346c-0.495-1.713,0.493-3.499,2.202-3.992c1.711-0.496,3.499,0.491,3.992,2.203
		c0.493,1.708-0.493,3.496-2.204,3.99C259.249,203.041,257.46,202.053,256.967,200.346"/>
	<g opacity="0.4">
		<g>
			<defs>
				<rect id="SVGID_9_" x="224.788" y="204.489" width="43.77" height="17.473"/>
			</defs>
			<clipPath id="SVGID_10_">
				<use xlink:href="#SVGID_9_"  overflow="visible"/>
			</clipPath>
			<path clip-path="url(#SVGID_10_)" fill="#FDAEAE" d="M224.888,219.516c-0.61-2.109,1.635-4.612,5.013-5.587
				c3.376-0.976,6.607-0.055,7.217,2.057c0.608,2.108-1.633,4.609-5.012,5.587C228.729,222.548,225.498,221.625,224.888,219.516"/>
			<path clip-path="url(#SVGID_10_)" fill="#FDAEAE" d="M256.227,210.466c-0.611-2.11,1.634-4.612,5.014-5.588
				c3.376-0.976,6.608-0.056,7.217,2.056c0.61,2.109-1.636,4.612-5.011,5.588C260.067,213.497,256.835,212.576,256.227,210.466"/>
		</g>
	</g>
	<path fill="#FDD9C3" d="M295.176,193.134c1.032,3.581-1.032,7.324-4.612,8.356c-3.581,1.034-7.32-1.029-8.356-4.611
		c-1.032-3.58,1.032-7.321,4.613-8.354C290.399,187.49,294.14,189.554,295.176,193.134"/>
	<path fill="#FDD9C3" d="M206.944,218.616c1.033,3.58-1.03,7.322-4.611,8.355c-3.58,1.034-7.321-1.03-8.354-4.61
		c-1.035-3.581,1.03-7.323,4.611-8.356C202.17,212.972,205.911,215.034,206.944,218.616"/>
	<path fill="#FD6760" d="M260.202,217.807c1.564,6.494-2.232,13.129-8.713,14.998c-6.48,1.874-13.23-1.716-15.369-8.043
		L260.202,217.807z"/>
	<g>
		<defs>
			<path id="SVGID_11_" d="M236.122,224.763c2.137,6.326,8.886,9.914,15.368,8.044c6.479-1.871,10.275-8.507,8.712-14.999
				L236.122,224.763z"/>
		</defs>
		<clipPath id="SVGID_12_">
			<use xlink:href="#SVGID_11_"  overflow="visible"/>
		</clipPath>
		<path clip-path="url(#SVGID_12_)" fill="#F1A2A5" d="M236.981,241.464c1.865,6.461,8.615,10.185,15.076,8.319
			c6.461-1.864,10.187-8.613,8.318-15.074c-1.865-6.46-8.614-10.186-15.076-8.319C238.84,228.254,235.114,235.003,236.981,241.464"
			/>
	</g>
	<path fill="#FDB700" d="M289.026,179.752c-0.781-1.989-1.506-4.024-2.543-5.896c0.117-1.323-0.019-2.678-0.427-3.988l-0.07-0.224
		c-0.371-0.761-0.743-1.516-1.116-2.275c-0.713-1.16-1.654-2.056-2.825-2.688c-0.668-0.579-1.436-0.948-2.301-1.117
		c-0.306-0.129-0.618-0.219-0.933-0.304c0.033-1.673-0.386-3.393-1.254-4.96c-2.479-4.469-7.123-8.037-12.17-9.06
		c-3.011-0.611-6.489-0.415-9.473,0.753c-0.732-1.792-1.82-3.426-3.363-4.648c-0.972-0.639-1.943-1.279-2.915-1.918
		c-2.069-0.98-4.247-1.395-6.53-1.242c-1.73,0.055-3.324,0.521-4.778,1.396c-1.632,0.635-3.011,1.65-4.137,3.048
		c-0.495,0.53-0.905,1.102-1.269,1.694c-2.857-1.819-6.309-2.83-9.929-2.83c-8.587,0-15.319,8.723-14.905,16.875
		c-0.612-0.048-1.228-0.066-1.856-0.026c-1.71,0.057-3.285,0.517-4.724,1.379c-1.613,0.631-2.975,1.635-4.088,3.015
		c-1.212,1.292-2.018,2.783-2.415,4.468c-0.654,1.543-0.891,3.167-0.709,4.87c0.17,1.494,0.545,2.992,1.142,4.393
		c-0.75,0.049-1.492,0.197-2.227,0.474c-1.305,0.386-2.418,1.065-3.339,2.029c-1.099,0.812-1.929,1.854-2.484,3.134
		c-0.754,1.591-1.073,3.268-0.957,5.024c0.045,0.657,0.085,1.318,0.129,1.979c0.155,2.411,1.457,5.247,3.376,6.771
		c0.538,0.354,1.081,0.708,1.62,1.065c-0.084,1.407,0.039,2.816,0.401,4.086c1.015,3.54,4.217,8.666,7.785,9.92
		c2.558,0.898,5.05,1.058,7.422-0.521c2.131-1.413,3.695-4.188,3.348-6.803c-0.144-1.081-0.46-2.015-0.842-2.921
		c5.336-0.087,10.689-4.029,14.238-7.958c2.137-2.364,4.006-5.183,5.362-8.213c1.758,0.34,3.634,0.271,5.518-0.302
		c2.486-0.753,4.956-1.915,7.115-3.355c1.734-1.153,3.162-2.488,4.446-3.974c0.259-0.235,0.511-0.478,0.742-0.734
		c0.057-0.063,0.114-0.127,0.172-0.19c0.721-0.803,1.281-1.698,1.694-2.645c0.824-1.269,1.523-2.607,2.083-4.002
		c0.128,0.194,0.251,0.392,0.408,0.581c4.373,5.217,11.569,6.583,18.095,5.362c0.258,0.292,0.515,0.586,0.771,0.877
		c1.335,1.153,2.867,1.897,4.598,2.229c0.068,0.023,0.138,0.043,0.206,0.065c0.283,0.051,0.563,0.074,0.842,0.102
		c0.347,0.728,0.698,1.452,1.027,2.174c1.33,2.912,2.484,5.294,5.411,6.897c3.401,1.864,7.045-0.738,7.941-4.023
		C291.079,184.891,290.004,182.25,289.026,179.752"/>
</g>
</svg>
