<?xml version="1.0" encoding="utf-8"?>
<!-- Generator: Adobe Illustrator 15.1.0, SVG Export Plug-In . SVG Version: 6.00 Build 0)  -->
<!DOCTYPE svg PUBLIC "-//W3C//DTD SVG 1.1//EN" "http://www.w3.org/Graphics/SVG/1.1/DTD/svg11.dtd">
<svg version="1.1" id="圖層_1" xmlns="http://www.w3.org/2000/svg" xmlns:xlink="http://www.w3.org/1999/xlink" x="0px" y="0px"
	 width="106.982px" height="106.982px" viewBox="0 0 106.982 106.982" enable-background="new 0 0 106.982 106.982"
	 xml:space="preserve">
<g>
	<path opacity="0.9" fill="#3B5A96" enable-background="new    " d="M106.982,90.727c0,8.979-7.277,16.257-16.256,16.257H16.258
		C7.278,106.983,0,99.704,0,90.727v-74.47C0,7.278,7.278,0,16.258,0h74.47c8.979,0,16.256,7.277,16.256,16.257L106.982,90.727
		L106.982,90.727z"/>
	<path fill="#FFFFFF" d="M82.065,61.804l1.729-13.414h-13.28v-8.563c0-3.884,1.083-6.529,6.65-6.529l7.098-0.005V21.294
		c-1.226-0.163-5.438-0.529-10.35-0.529c-10.241,0-17.249,6.253-17.249,17.734v9.891H45.079v13.414h11.584v34.418h13.851V61.804
		H82.065z"/>
</g>
</svg>
