<?xml version="1.0" encoding="utf-8"?>
<!-- Generator: Adobe Illustrator 15.1.0, SVG Export Plug-In . SVG Version: 6.00 Build 0)  -->
<!DOCTYPE svg PUBLIC "-//W3C//DTD SVG 1.1//EN" "http://www.w3.org/Graphics/SVG/1.1/DTD/svg11.dtd">
<svg version="1.1" id="圖層_1" xmlns="http://www.w3.org/2000/svg" xmlns:xlink="http://www.w3.org/1999/xlink" x="0px" y="0px"
 fill="black" width="194px" height="145px" viewBox="0 0 194 145" enable-background="new 0 0 194 145" xml:space="preserve">
<g>
	<path d="M15.324,76.228c0,0,14.084-9.25,21.584-14.584c-2-5.833-8.25-13.083,3.583-28c13.167,3.167,19.563,24.75,25.5,37.167
		c0,0,25.128-17.904,41-14.583c19.916,4.167,42,30.667,78.458,3.292c-23.458-1.208-32.458-1.958-54.292-14.292
		c-19.828-11.201-35.021,6-45.499,9.717c-6.167-2.301-9.667-61.134-48.917-23.717c-8.511,8.113-11.333,6.5-19.167,17.583
		C11.802,56.978,11.837,68.011,15.324,76.228"/>
	<circle cx="95.074" cy="25.602" r="14.75"/>
	<g>
		<path d="M36.911,99.843c-0.235,0.265-0.529,0.324-1.087,0.353c-1.029,0.734-2.792,1.792-3.997,2.38l-0.293-0.176
			c0.235-0.764,0.529-1.94,0.734-2.88H13.958c0.059,1.793-0.705,3.057-1.704,3.527c-0.94,0.47-2.234,0.176-2.527-0.911
			c-0.265-0.999,0.353-1.734,1.234-2.116c1-0.412,2.116-1.558,2.087-2.88h0.441c0.206,0.559,0.323,1.058,0.411,1.558h18.191
			l1.763-1.763L36.911,99.843z M32.943,109.247c0,0,2.086,1.411,3.35,2.469c-0.059,0.323-0.382,0.47-0.793,0.47H10.637l-0.264-0.823
			h10.903v-2.469h-8.023l-0.235-0.852h8.258v-2.175c-1.822,0.235-3.762,0.5-5.848,0.735c-0.265,0.353-0.588,0.558-0.882,0.646
			l-0.97-3.115c0,0,0.441-0.059,0.735-0.176c1.205-0.265,2.645-1.146,3.615-1.91H14.84l-0.235-0.853h12.813l1.499-1.646
			c0,0,1.734,1.117,2.821,2.027c-0.059,0.324-0.353,0.471-0.764,0.471h-8.552c-1.616,0.823-3.791,1.646-5.73,2.263
			c2.851,0,6.995-0.088,11.491-0.235c-0.617-0.44-1.322-0.852-2.086-1.264l0.147-0.382c7.435-0.206,7.259,3.82,5.319,4.144
			c0.676,0.47,1.675,1.234,2.41,1.852c-0.088,0.323-0.382,0.47-0.793,0.47h-8.199v2.469h6.113L32.943,109.247z M11.049,87.823
			h10.256v-2.557l4.761,0.382c-0.059,0.412-0.265,0.705-1.058,0.823v1.352h5.231l1.881-2.116c0,0,2.146,1.44,3.468,2.469
			c-0.088,0.323-0.411,0.47-0.793,0.47h-4.349c0.382,0.265,2.057,1.469,3.203,2.38c-0.088,0.323-0.382,0.47-0.823,0.47H13.253
			l-0.235-0.852h8.288v-1.999H11.284L11.049,87.823z M27.947,93.26l1.646-1.763l3.438,2.557c-0.147,0.206-0.529,0.441-1.058,0.559
			v2.645c-0.029,0.176-1.91,0.793-3.056,0.793h-0.676v-1.058h-9.963v0.265c0,0.294-1.705,1.058-3.174,1.058h-0.47v-6.524l3.82,1.469
			H27.947z M28.241,96.14v-2.057h-9.963v2.057H28.241z M26.007,106.015c-0.059,0.411-0.264,0.676-1.028,0.793v1.234h4.114
			l1.411-1.705c-0.294-0.412-0.793-0.97-1.469-1.528c-1.881,0.265-4.144,0.588-6.701,0.94L26.007,106.015z M25.008,88.646v1.999
			h3.585l1.705-1.999H25.008z"/>
		<path d="M65.922,92.613c-0.206,0.235-0.587,0.529-1.205,0.646v9.669c-0.029,0.235-1.852,0.882-3.057,0.882h-0.617v-2.469h-6.612
			v10.286c0,0.382-1.587,1.264-2.998,1.264h-0.676v-11.55h-6.554v1.734c0,0.353-1.616,1.176-3.115,1.176H40.56V90.262l3.909,1.528
			h6.289v-6.436l4.761,0.441c-0.059,0.411-0.294,0.734-1.087,0.852v5.143h6.348l1.646-1.822L65.922,92.613z M50.758,100.49v-7.847
			h-6.554v7.847H50.758z M61.043,100.49v-7.847h-6.612v7.847H61.043z"/>
		<path d="M96.227,89.234c-0.235,0.294-0.617,0.382-1.322,0.411c-1.117,1.94-2.968,5.172-4.584,7.142
			c3.556,2.086,4.996,5.114,4.996,7.582c0.03,2.968-1.234,4.761-4.761,4.82c0-0.97-0.118-2.292-0.382-2.704
			c-0.265-0.323-0.793-0.588-1.528-0.735v-0.412h2.146c0.294,0,0.44-0.029,0.676-0.146c0.441-0.265,0.705-0.794,0.705-1.764
			c0-2.145-0.705-4.496-2.586-6.583c0.559-1.998,1.352-5.672,1.763-8.141h-3.262v23.1c0,0.264-0.999,1.058-2.674,1.058h-0.587
			V95.758c-0.118,0.265-0.382,0.382-0.764,0.382h-5.525c-0.94,1.058-1.969,2.116-3.115,3.115h2.998l1.528-1.617l3.174,2.381
			c-0.176,0.206-0.588,0.47-1.146,0.587v10.903c-0.029,0.206-1.616,0.852-2.704,0.852h-0.558v-2.439h-4.409v1.852
			c0,0.235-0.999,0.94-2.586,0.94h-0.559v-10.257c-0.999,0.617-2.028,1.205-3.115,1.734l-0.264-0.353
			c1.175-0.823,2.322-1.705,3.379-2.674v-3.174l2.292,0.852c0.793-0.882,1.558-1.763,2.263-2.704h-7.464l-0.235-0.823h5.055v-4.35
			h-4.026l-0.235-0.853h4.262v-4.584l4.349,0.382c-0.059,0.411-0.294,0.705-1.087,0.823v3.379h0.529l1.44-2.086
			c0,0,0.764,0.676,1.528,1.411c0.529-1.058,0.97-2.116,1.352-3.115l3.645,1.793v-1.969l3.673,1.734h2.616l1.763-1.734
			L96.227,89.234z M74.42,100.107l-0.118,0.118v3.938h4.409v-4.056H74.42z M78.711,109.071v-4.056h-4.409v4.056H78.711z
			 M76.331,90.968v4.32c1.029-1.411,1.94-2.88,2.733-4.32H76.331z M82.062,93.201c0,0,1.734,1.44,2.763,2.439v-7.289
			c-0.206,0.206-0.5,0.294-1.087,0.176c-1.146,2.204-2.645,4.526-4.497,6.789h1.264L82.062,93.201z"/>
		<path d="M114.335,86.442c-0.088,0.353-0.44,0.529-1.411,0.646c2.704,2.498,8.141,3.997,12.314,4.644v0.411
			c-1.44,0.47-2.38,1.969-2.557,3.292c-0.735-0.264-1.44-0.558-2.146-0.911l1.411,1.058c-0.088,0.147-0.382,0.323-0.735,0.412v5.554
			c-0.029,0.235-1.587,0.853-2.586,0.853h-0.529v-0.853h-13.43v0.235c0,0.118-0.147,0.294-0.412,0.5l2.998,1.175h8.17l1.499-1.528
			l3.027,2.233c-0.118,0.176-0.411,0.353-0.793,0.441v7.171c-0.029,0.264-1.675,1.058-2.88,1.058h-0.588v-1.528h-8.611v0.558
			c0,0.323-1.528,1.087-2.939,1.087h-0.47v-10.345c-0.411,0.176-0.911,0.294-1.528,0.294h-0.529v-7.994
			c-1.234,0.529-2.469,0.97-3.673,1.352l-0.176-0.353c4.908-2.498,10.198-7.406,11.491-10.727L114.335,86.442z M119.037,93.76
			c-2.792-1.617-5.202-3.792-6.583-6.348c-1.91,2.41-5.437,4.908-9.287,6.759l1.881,0.735h12.843L119.037,93.76z M104.667,100.695
			h5.231v-4.938h-5.231V100.695z M105.754,96.052c5.378,1.91,2.586,5.731,0.676,3.791c0.059-1.234-0.47-2.704-0.999-3.644
			L105.754,96.052z M113.659,90.645c0,0,1.616,1.264,2.616,2.204c-0.088,0.323-0.353,0.47-0.764,0.47h-8.317l-0.235-0.823h5.231
			L113.659,90.645z M107.076,104.31v2.645h8.611v-2.645H107.076z M115.687,110.452v-2.674h-8.611v2.674H115.687z M118.097,95.758
			h-5.29v4.938h0.823c0.47-1.381,0.999-3.262,1.293-4.644l3.174,1.058V95.758z M118.097,100.695V97.58
			c-0.176,0.088-0.44,0.147-0.793,0.118c-0.734,0.911-1.822,2.028-2.851,2.998H118.097z"/>
		<path d="M139.497,88.793c-0.147,0.353-0.529,0.588-1.234,0.529c-2.586,5.613-6.23,9.346-10.668,11.755l-0.294-0.264
			c2.968-3.115,5.937-8.288,7.436-13.813L139.497,88.793z M144.64,101.459c11.314,5.113,8.199,13.989,4.232,10.639
			c-0.147-1.176-0.441-2.41-0.882-3.645c-3.85,1.146-9.14,2.469-15.634,3.674c-0.294,0.411-0.646,0.676-1.029,0.793l-1.469-4.497
			c0,0,0.881-0.206,1.234-0.5c2.322-2.116,5.819-8.64,6.818-12.343l4.996,1.91c-0.147,0.323-0.5,0.588-1.146,0.559
			c-1.969,3.292-5.907,7.788-9.287,10.521c3.703-0.118,9.404-0.47,15.164-0.999c-0.881-2.146-2.086-4.232-3.321-5.937
			L144.64,101.459z M147.403,87.118c-0.382,0.47-1.411,0.706-2.616,0.793c1.322,4.203,4.849,7.876,9.786,9.61l-0.059,0.353
			c-1.499,0.529-2.704,1.91-3.115,3.35c-4.144-2.938-6.436-7.553-7.376-13.548h-3.409l-0.264-0.823h2.88l1.146-1.822L147.403,87.118
			z"/>
		<path d="M183.585,88.234c-0.206,0.265-0.617,0.5-1.205,0.647v22.717c-0.029,0.265-1.646,1.117-2.938,1.117h-0.529v-2.234h-17.574
			v1.117c0,0.441-1.352,1.293-2.821,1.293h-0.588V85.942l3.703,1.528h16.986l1.675-1.881L183.585,88.234z M178.912,109.659V88.293
			h-17.574v21.365h4.791l-1.499-2.263c0.911-0.588,1.058-0.823,1.058-1.293v-1.381c-1.234,0.529-2.557,0.97-3.938,1.352l-0.235-0.5
			c2.351-1.029,4.467-2.498,5.878-4.085h-0.911v0.118c0,0.235-1.293,0.793-2.41,0.793h-0.412v-6.495l2.939,1.176h6.965l1.293-1.323
			l2.704,1.999c-0.147,0.176-0.441,0.353-0.853,0.441v3.145c0,0.059-0.118,0.118-0.265,0.206l1.911,1.705
			c-0.176,0.235-0.441,0.294-0.94,0.088c-0.617,0.264-1.528,0.588-2.439,0.881c4.761,2.41,3.174,5.466,1.234,4.409
			c-0.852-1.381-3.233-3.732-6.289-5.613l0.206-0.412c1.47,0.323,2.704,0.706,3.732,1.117c0.529-0.588,1.117-1.264,1.616-1.822
			c-0.411,0.088-0.823,0.176-1.175,0.176h-0.5v-0.588h-2.998c-0.676,0.676-1.469,1.264-2.351,1.822v1.587h-0.03v1.469
			c1.117-0.323,2.41-0.676,3.674-1.058l0.088,0.382c-1.058,0.705-3.262,2.175-5.525,3.585c-0.118,0.176-0.265,0.294-0.382,0.382
			H178.912z M176.062,92.613c0,0,1.705,1.293,2.733,2.204c-0.088,0.323-0.382,0.47-0.794,0.47h-16.046l-0.235-0.823h6.818v-2.146
			h-5.29l-0.235-0.823h5.525v-2.586l3.909,0.353c-0.029,0.353-0.235,0.588-0.823,0.676v1.558h1.998l1.44-1.705
			c0,0,1.646,1.176,2.645,2.057c-0.059,0.323-0.353,0.47-0.764,0.47h-5.319v2.146h2.938L176.062,92.613z M173.799,97.933h-7.318
			v2.733h7.318V97.933z"/>
	</g>
	<g>
		<path d="M15.415,125.883h-2.34v-1.051h5.948v1.051h-2.351v6.923h-1.257V125.883z"/>
		<path d="M23.594,130.531h-2.773l-0.683,2.275H18.86l2.644-7.974h1.452l2.644,7.974h-1.333L23.594,130.531z M23.291,129.545
			l-0.314-1.073c-0.271-0.867-0.509-1.755-0.758-2.654h-0.043c-0.228,0.91-0.477,1.788-0.736,2.654l-0.325,1.073H23.291z"/>
		<path d="M26.648,124.832h1.257v7.974h-1.257V124.832z"/>
		<path d="M29.563,128.84c0-2.6,1.582-4.16,3.597-4.16c0.997,0,1.777,0.477,2.264,1.008l-0.683,0.802
			c-0.412-0.423-0.91-0.715-1.56-0.715c-1.376,0-2.329,1.148-2.329,3.023c0,1.896,0.888,3.055,2.297,3.055
			c0.726,0,1.289-0.325,1.766-0.845l0.672,0.791c-0.639,0.736-1.452,1.148-2.481,1.148C31.101,132.946,29.563,131.452,29.563,128.84
			z"/>
		<path d="M36.994,124.832h1.257v3.25h3.413v-3.25h1.257v7.974h-1.257v-3.629H38.25v3.629h-1.257V124.832z"/>
		<path d="M44.967,129.382v-4.55h1.257v4.637c0,1.798,0.715,2.383,1.712,2.383c1.007,0,1.744-0.585,1.744-2.383v-4.637h1.213v4.55
			c0,2.6-1.192,3.564-2.958,3.564C46.169,132.946,44.967,131.982,44.967,129.382z"/>
		<path d="M52.951,124.832h1.29l2.643,4.68l0.834,1.69h0.054c-0.065-0.823-0.163-1.788-0.163-2.654v-3.716h1.191v7.974h-1.289
			l-2.644-4.702l-0.834-1.668H53.98c0.065,0.823,0.163,1.744,0.163,2.611v3.759h-1.192V124.832z"/>
		<path d="M60.469,128.84c0-2.6,1.603-4.16,3.716-4.16c1.127,0,1.885,0.499,2.373,1.008l-0.683,0.802
			c-0.39-0.401-0.877-0.715-1.646-0.715c-1.484,0-2.47,1.148-2.47,3.023c0,1.896,0.877,3.055,2.524,3.055
			c0.487,0,0.975-0.141,1.256-0.39v-1.875h-1.582v-1.029h2.719v3.456c-0.531,0.531-1.43,0.932-2.524,0.932
			C62.018,132.946,60.469,131.452,60.469,128.84z"/>
		<path d="M70.933,124.832h1.441l1.462,4.03c0.185,0.531,0.347,1.072,0.531,1.614h0.054c0.184-0.542,0.335-1.083,0.52-1.614
			l1.441-4.03h1.452v7.974h-1.17v-3.943c0-0.715,0.098-1.744,0.163-2.47h-0.043l-0.639,1.842l-1.387,3.803h-0.78l-1.397-3.803
			l-0.628-1.842h-0.043c0.054,0.726,0.152,1.755,0.152,2.47v3.943h-1.127V124.832z"/>
		<path d="M79.924,124.832h4.713v1.051h-3.456v2.221h2.925v1.062h-2.925v2.579h3.575v1.062h-4.832V124.832z"/>
		<path d="M88.049,125.883h-2.34v-1.051h5.948v1.051h-2.351v6.923h-1.257V125.883z"/>
		<path d="M97.387,132.806l-1.81-3.218h-1.289v3.218h-1.257v-7.974h2.611c1.647,0,2.882,0.585,2.882,2.308
			c0,1.235-0.661,1.972-1.668,2.286l1.95,3.38H97.387z M94.289,128.581h1.203c1.159,0,1.788-0.477,1.788-1.441s-0.628-1.3-1.788-1.3
			h-1.203V128.581z"/>
		<path d="M99.694,128.786c0-2.567,1.419-4.106,3.467-4.106c2.047,0,3.478,1.539,3.478,4.106c0,2.568-1.43,4.16-3.478,4.16
			C101.113,132.946,99.694,131.354,99.694,128.786z M105.35,128.786c0-1.874-0.867-3.012-2.188-3.012s-2.178,1.138-2.178,3.012
			c0,1.875,0.856,3.066,2.178,3.066S105.35,130.661,105.35,128.786z"/>
		<path d="M108.295,124.832h2.416c1.777,0,3.044,0.607,3.044,2.405c0,1.744-1.268,2.546-3.001,2.546h-1.203v3.022h-1.257V124.832z
			 M110.636,128.775c1.278,0,1.885-0.487,1.885-1.538c0-1.051-0.661-1.398-1.928-1.398h-1.04v2.936H110.636z"/>
		<path d="M114.871,128.786c0-2.567,1.419-4.106,3.467-4.106c2.047,0,3.478,1.539,3.478,4.106c0,2.568-1.43,4.16-3.478,4.16
			C116.29,132.946,114.871,131.354,114.871,128.786z M120.526,128.786c0-1.874-0.867-3.012-2.188-3.012s-2.178,1.138-2.178,3.012
			c0,1.875,0.856,3.066,2.178,3.066S120.526,130.661,120.526,128.786z"/>
		<path d="M123.472,124.832h1.257v6.912h3.369v1.062h-4.626V124.832z"/>
		<path d="M129.506,124.832h1.257v7.974h-1.257V124.832z"/>
		<path d="M134.479,125.883h-2.34v-1.051h5.948v1.051h-2.351v6.923h-1.257V125.883z"/>
		<path d="M142.658,130.531h-2.773l-0.683,2.275h-1.278l2.644-7.974h1.452l2.644,7.974h-1.333L142.658,130.531z M142.354,129.545
			l-0.314-1.073c-0.271-0.867-0.509-1.755-0.758-2.654h-0.043c-0.228,0.91-0.477,1.788-0.736,2.654l-0.325,1.073H142.354z"/>
		<path d="M145.712,124.832h1.289l2.644,4.68l0.834,1.69h0.054c-0.065-0.823-0.163-1.788-0.163-2.654v-3.716h1.191v7.974h-1.289
			l-2.644-4.702l-0.834-1.668h-0.054c0.065,0.823,0.163,1.744,0.163,2.611v3.759h-1.192V124.832z"/>
		<path d="M156.101,124.832h2.416c1.777,0,3.044,0.607,3.044,2.405c0,1.744-1.268,2.546-3.001,2.546h-1.203v3.022h-1.257V124.832z
			 M158.441,128.775c1.278,0,1.885-0.487,1.885-1.538c0-1.051-0.661-1.398-1.928-1.398h-1.04v2.936H158.441z"/>
		<path d="M166.187,130.531h-2.773l-0.683,2.275h-1.278l2.644-7.974h1.452l2.644,7.974h-1.333L166.187,130.531z M165.883,129.545
			l-0.314-1.073c-0.271-0.867-0.509-1.755-0.758-2.654h-0.043c-0.228,0.91-0.477,1.788-0.736,2.654l-0.325,1.073H165.883z"/>
		<path d="M173.596,132.806l-1.81-3.218h-1.289v3.218h-1.257v-7.974h2.611c1.647,0,2.882,0.585,2.882,2.308
			c0,1.235-0.661,1.972-1.668,2.286l1.95,3.38H173.596z M170.498,128.581h1.203c1.159,0,1.788-0.477,1.788-1.441
			s-0.628-1.3-1.788-1.3h-1.203V128.581z"/>
		<path d="M176.336,124.832h1.257v3.77h0.033l3.033-3.77h1.397l-2.47,3.077l2.882,4.897h-1.397l-2.253-3.9l-1.224,1.495v2.405
			h-1.257V124.832z"/>
	</g>
</g>
</svg>
