<?xml version="1.0" encoding="utf-8"?>
<!-- Generator: Adobe Illustrator 15.1.0, SVG Export Plug-In . SVG Version: 6.00 Build 0)  -->
<!DOCTYPE svg PUBLIC "-//W3C//DTD SVG 1.1//EN" "http://www.w3.org/Graphics/SVG/1.1/DTD/svg11.dtd">
<svg version="1.1" id="圖層_1" xmlns="http://www.w3.org/2000/svg" xmlns:xlink="http://www.w3.org/1999/xlink" x="0px" y="0px"
	 width="106.982px" height="106.982px" viewBox="0 0 106.982 106.982" enable-background="new 0 0 106.982 106.982"
	 xml:space="preserve">
<g>
	<path fill="#C82128" enable-background="new    " d="M106.982,90.727c0,8.979-7.277,16.257-16.256,16.257H16.258
		C7.278,106.983,0,99.706,0,90.727v-74.47C0,7.278,7.278,0,16.258,0h74.47c8.979,0,16.256,7.277,16.256,16.257L106.982,90.727
		L106.982,90.727z"/>
	<g>
		<path fill="#FFFFFF" d="M46.372,13.145h-4.655l-3.141,12.073l-3.268-12.073h-4.848c0.971,2.849,1.982,5.714,2.952,8.565
			c1.478,4.287,2.398,7.52,2.814,9.729v12.453h4.604V31.438L46.372,13.145z M58.68,36.472v-8.024c0-2.449-0.421-4.237-1.291-5.398
			c-1.148-1.564-2.764-2.348-4.844-2.348c-2.067,0-3.687,0.782-4.835,2.348c-0.885,1.161-1.3,2.949-1.3,5.398v8.024
			c0,2.438,0.415,4.24,1.3,5.393c1.148,1.562,2.768,2.345,4.835,2.345c2.08,0,3.694-0.783,4.844-2.345
			C58.26,40.712,58.68,38.908,58.68,36.472z M54.525,37.255c0,2.119-0.643,3.18-1.979,3.18c-1.341,0-1.982-1.061-1.982-3.18v-9.641
			c0-2.121,0.643-3.177,1.982-3.177c1.338,0,1.979,1.056,1.979,3.177V37.255z M74.035,43.892V20.979h-4.153v17.513
			c-0.924,1.3-1.794,1.942-2.625,1.942c-0.559,0-0.882-0.329-0.972-0.973c-0.051-0.134-0.051-0.642-0.051-1.615V20.979h-4.142
			v18.117c0,1.615,0.142,2.715,0.371,3.406c0.412,1.162,1.336,1.705,2.674,1.705c1.513,0,3.09-0.92,4.743-2.816v2.5L74.035,43.892
			L74.035,43.892z"/>
		<path fill="#FFFFFF" d="M87.484,71.7c0,5.301-0.004,10.925-1.192,16.071c-0.831,3.613-3.788,6.279-7.349,6.682
			c-8.43,0.939-16.964,0.943-25.457,0.939c-8.495,0.004-17.027,0-25.458-0.939c-3.563-0.401-6.519-3.067-7.347-6.682
			c-1.185-5.146-1.185-10.771-1.185-16.071c0-5.306,0.012-10.918,1.197-16.073c0.83-3.612,3.787-6.28,7.347-6.677
			c8.434-0.943,16.964-0.945,25.458-0.943c8.494-0.002,17.027,0,25.459,0.943c3.563,0.396,6.519,3.063,7.348,6.677
			C87.489,60.782,87.484,66.396,87.484,71.7z"/>
		<path fill="#C82128" enable-background="new    " d="M38.889,60.264v-4.287H24.563v4.287h4.834V86.41h4.568V60.264H38.889z
			 M47.191,86.409v-2.473c-1.632,1.871-3.186,2.785-4.693,2.785c-1.325,0-2.24-0.536-2.646-1.687
			c-0.229-0.69-0.362-1.771-0.362-3.371V63.733h4.104v16.695c0,0.961,0,1.465,0.038,1.598c0.102,0.638,0.411,0.959,0.961,0.959
			c0.823,0,1.69-0.637,2.6-1.92V63.733h4.112v22.677H47.191z M62.805,79.929c0,2.05-0.605,3.057-1.789,3.057
			c-0.677,0-1.361-0.321-2.048-1.007V68.154c0.687-0.676,1.371-0.998,2.048-0.998c1.184,0,1.789,1.052,1.789,3.094V79.929z
			 M66.91,79.606v-9.031c0-2.145-0.141-3.647-0.412-4.56c-0.549-1.698-1.647-2.56-3.285-2.56c-1.51,0-2.918,0.83-4.244,2.459v-9.938
			H54.86v30.434h4.107v-2.195c1.371,1.696,2.781,2.509,4.244,2.509c1.638,0,2.736-0.861,3.285-2.547
			C66.77,83.214,66.91,81.703,66.91,79.606z M78.309,72.399h-4.105v-2.096c0-2.097,0.688-3.147,2.062-3.147
			c1.357,0,2.045,1.052,2.045,3.147L78.309,72.399L78.309,72.399z M82.419,79.156v-0.599h-4.193c0,1.647-0.05,2.555-0.088,2.779
			c-0.236,1.099-0.828,1.647-1.838,1.647c-1.408,0-2.097-1.045-2.097-3.146v-4.018h8.216v-4.695c0-2.426-0.413-4.199-1.272-5.344
			c-1.149-1.555-2.785-2.326-4.847-2.326c-2.097,0-3.735,0.771-4.92,2.326c-0.876,1.145-1.27,2.918-1.27,5.344v7.941
			c0,2.406,0.446,4.198,1.318,5.33c1.187,1.551,2.819,2.324,4.975,2.324c2.145,0,3.829-0.813,4.97-2.458
			c0.496-0.727,0.817-1.555,0.957-2.461C82.367,81.39,82.419,80.476,82.419,79.156z"/>
	</g>
</g>
</svg>
